<svg width="80" height="94" viewBox="0 0 80 94" fill="none" xmlns="http://www.w3.org/2000/svg">
    <path d="M76.4583 19.933C77.4306 20.9122 78.2639 22.2411 78.9583 23.9196C79.6528 25.5982 80 27.1369 80 28.5357V88.9643C80 90.3631 79.5139 91.5521 78.5417 92.5313C77.5694 93.5104 76.3889 94 75 94H5C3.61111 94 2.43056 93.5104 1.45833 92.5313C0.486111 91.5521 0 90.3631 0 88.9643V5.03571C0 3.63691 0.486111 2.44792 1.45833 1.46875C2.43056 0.489583 3.61111 0 5 0H51.6667C53.0556 0 54.5833 0.349702 56.25 1.04911C57.9167 1.74851 59.2361 2.5878 60.2083 3.56696L76.4583 19.933ZM53.3333 7.13393V26.8571H72.9167C72.5694 25.843 72.1875 25.1261 71.7708 24.7065L55.4688 8.28795C55.0521 7.8683 54.3403 7.48363 53.3333 7.13393ZM73.3333 87.2857V33.5714H51.6667C50.2778 33.5714 49.0972 33.0818 48.125 32.1027C47.1528 31.1235 46.6667 29.9345 46.6667 28.5357V6.71429H6.66667V87.2857H73.3333ZM20 41.9643C20 41.4747 20.1562 41.0725 20.4688 40.7578C20.7812 40.4431 21.1806 40.2857 21.6667 40.2857H58.3333C58.8194 40.2857 59.2188 40.4431 59.5312 40.7578C59.8438 41.0725 60 41.4747 60 41.9643V45.3214C60 45.811 59.8438 46.2132 59.5312 46.5279C59.2188 46.8426 58.8194 47 58.3333 47H21.6667C21.1806 47 20.7812 46.8426 20.4688 46.5279C20.1562 46.2132 20 45.811 20 45.3214V41.9643ZM58.3333 53.7143C58.8194 53.7143 59.2188 53.8717 59.5312 54.1864C59.8438 54.5011 60 54.9033 60 55.3929V58.75C60 59.2396 59.8438 59.6417 59.5312 59.9565C59.2188 60.2712 58.8194 60.4286 58.3333 60.4286H21.6667C21.1806 60.4286 20.7812 60.2712 20.4688 59.9565C20.1562 59.6417 20 59.2396 20 58.75V55.3929C20 54.9033 20.1562 54.5011 20.4688 54.1864C20.7812 53.8717 21.1806 53.7143 21.6667 53.7143H58.3333ZM58.3333 67.1429C58.8194 67.1429 59.2188 67.3002 59.5312 67.615C59.8438 67.9297 60 68.3318 60 68.8214V72.1786C60 72.6682 59.8438 73.0703 59.5312 73.385C59.2188 73.6998 58.8194 73.8571 58.3333 73.8571H21.6667C21.1806 73.8571 20.7812 73.6998 20.4688 73.385C20.1562 73.0703 20 72.6682 20 72.1786V68.8214C20 68.3318 20.1562 67.9297 20.4688 67.615C20.7812 67.3002 21.1806 67.1429 21.6667 67.1429H58.3333Z" fill="white"/>
</svg>
