<svg width="94" height="78" viewBox="0 0 94 78" fill="none" xmlns="http://www.w3.org/2000/svg">
    <path d="M89.8662 33.563C86.9893 51.6787 83.8629 71.4823 83.8629 71.4823C83.8629 71.4823 83.3806 77.0391 79.298 78C74.9241 77.9325 70.6969 76.4038 67.2831 73.6549C66.3186 72.9279 49.2566 62.0652 43.0122 56.7508C42.3753 56.3187 41.8578 55.7315 41.5078 55.044C41.1579 54.3565 40.987 53.5911 41.0111 52.8193C41.0352 52.0475 41.2534 51.2943 41.6455 50.6302C42.0376 49.9661 42.5908 49.4127 43.2533 49.0215C51.8123 41.1316 60.2228 33.0806 68.4805 24.8728C71.3657 21.9733 74.251 15.2133 62.236 23.4272C45.174 35.2593 28.3532 46.3643 28.3532 46.3643C26.6207 47.1498 24.7485 47.5761 22.8484 47.6177C20.9483 47.6594 19.0593 47.3155 17.2945 46.6067C10.0855 44.4341 1.67923 41.5346 1.67923 41.5346C1.67923 41.5346 -4.09125 37.9165 5.76181 34.0142C5.76181 34.0142 47.3359 16.8678 61.7538 10.8348C67.2831 8.41992 86.0247 0.690658 86.0247 0.690658C86.0247 0.690658 94.6804 -2.69351 93.9571 5.5204C93.7159 8.93798 91.7952 20.77 89.8662 33.563Z" fill="white"/>
</svg>
