<svg width="98" height="90" viewBox="0 0 98 90" fill="none" xmlns="http://www.w3.org/2000/svg">
    <path fill-rule="evenodd" clip-rule="evenodd" d="M47.1849 89.3199C47.7573 89.6139 48.3805 89.7629 48.9999 89.7629C49.372 89.7629 49.7387 89.71 50.0898 89.6083C50.3395 89.5368 50.5824 89.4404 50.8148 89.3199C57.2134 85.9824 64.3233 84.2396 71.5399 84.2396C78.7566 84.2396 85.8665 85.9824 92.2651 89.3199C92.8374 89.6139 93.4606 89.7629 94.08 89.7629C95.1197 89.7629 96.1167 89.3499 96.8519 88.6148C97.587 87.8796 98 86.8825 98 85.8429V11.3627C98 10.0808 97.3728 8.87739 96.3223 8.14434C82.2316 -1.65805 63.5445 -2.14387 49.0016 6.68688C34.4553 -2.14387 15.7684 -1.65805 1.68144 8.14434C1.16235 8.50539 0.738307 8.98664 0.445477 9.54704C0.152646 10.1074 -0.000275713 10.7304 -0.000244136 11.3627V85.8429C0.00153795 86.5163 0.176445 87.178 0.507678 87.7644C0.838912 88.3507 1.31534 88.8421 1.89122 89.1912C2.4671 89.5404 3.12307 89.7356 3.79615 89.7581C4.46923 89.7807 5.13679 89.6298 5.73473 89.3199C12.1333 85.9824 19.2432 84.2396 26.4598 84.2396C33.6765 84.2396 40.7864 85.9824 47.1849 89.3199ZM52.9199 13.4795V79.7982C58.8704 77.5502 65.179 76.3988 71.5399 76.3996C77.8512 76.3996 84.1663 77.5325 90.16 79.7982V13.4795C84.5522 10.057 78.1096 8.24635 71.5399 8.24635C64.9703 8.24635 58.5277 10.057 52.9199 13.4795ZM45.0799 79.7982C39.0862 77.5325 32.771 76.3996 26.4598 76.3996C20.0988 76.3988 13.7903 77.5502 7.83978 79.7982V13.4795C13.4476 10.057 19.8902 8.24635 26.4598 8.24635C33.0295 8.24635 39.4721 10.057 45.0799 13.4795V79.7982Z" fill="white"/>
</svg>
