<svg width="90" height="90" viewBox="0 0 90 90" fill="none" xmlns="http://www.w3.org/2000/svg">
    <path d="M45 0C20.1295 0 0 20.1295 0 45C0 69.8705 20.2073 90 45 90C69.8705 90 90 69.7927 90 45C90 20.1295 69.8705 0 45 0ZM45 81.1399C25.1036 81.1399 8.8601 64.8964 8.8601 45C8.8601 25.1036 25.1036 8.8601 45 8.8601C64.8964 8.8601 81.1399 25.1036 81.1399 45C81.1399 64.8964 64.8964 81.1399 45 81.1399Z" fill="white"/>
    <path d="M43.057 31.7876C46.3621 31.7876 49.0414 29.1082 49.0414 25.8031C49.0414 22.498 46.3621 19.8187 43.057 19.8187C39.7519 19.8187 37.0725 22.498 37.0725 25.8031C37.0725 29.1082 39.7519 31.7876 43.057 31.7876Z" fill="white"/>
    <path d="M39.0933 37.228C37.3834 37.5388 36.1399 39.0155 36.1399 40.7254C36.1399 42.7461 37.772 44.3005 39.715 44.3005H40.1036V64.1191H38.1606C36.4508 64.1191 35.1295 65.5181 35.1295 67.1502C35.1295 68.8601 36.5285 70.1813 38.1606 70.1813H51.8394C53.5492 70.1813 54.8704 68.7824 54.8704 67.1502C54.8704 65.4404 53.4715 64.1191 51.8394 64.1191H49.9741V38.7824C49.9741 36.8394 48.1865 35.3627 46.3212 35.7513C43.1347 36.373 39.2487 37.1502 39.0933 37.228Z" fill="white"/>
</svg>
