<svg width="95" height="73" viewBox="0 0 95 73" fill="none" xmlns="http://www.w3.org/2000/svg">
    <path fill-rule="evenodd" clip-rule="evenodd" d="M22.4444 0C19.697 0 17.4307 2.28634 17.4307 5.05805V38.7656C17.4307 41.5373 19.697 43.8172 22.4444 43.8172H39.587V50.6475H1.60475C-0.534917 50.6156 -0.534917 53.8727 1.60475 53.8407H7.93513V73H11.1003V53.8407H83.8997V73H87.0649V53.8407H93.3952C95.5349 53.8727 95.5349 50.6156 93.3952 50.6475H55.413V43.8172H72.5556C75.303 43.8172 77.5693 41.5373 77.5693 38.7656V5.05805C77.5693 2.28634 75.303 0 72.5556 0H22.4444ZM72.5556 3.36564C73.5115 3.36564 74.2332 4.0937 74.2332 5.05805V34.2376H20.7668V5.05805C20.7668 4.0937 21.4853 3.36564 22.4412 3.36564H72.5556ZM20.7668 37.4308H47.3386C47.0009 37.4713 46.6852 37.6205 46.4381 37.8562C46.191 38.0919 46.0257 38.4016 45.9668 38.7395C45.9078 39.0773 45.9583 39.4254 46.1108 39.732C46.2632 40.0387 46.5095 40.2876 46.8132 40.442H22.4444C21.4885 40.442 20.7668 37.798 20.7668 38.7592V37.4308ZM47.5253 37.4308H74.23V38.7656C74.2348 38.9883 74.1947 39.2097 74.1122 39.4163C74.0296 39.6229 73.9063 39.8104 73.7497 39.9675C73.5931 40.1245 73.4065 40.2479 73.2013 40.33C72.996 40.4121 72.7764 40.4513 72.5556 40.4452H48.1742C48.1995 40.4292 48.228 40.4229 48.2533 40.4069C48.3 40.3826 48.3454 40.356 48.3894 40.3271L48.516 40.2249C48.7996 39.9782 48.987 39.638 49.045 39.2649C49.103 38.8917 49.0277 38.5099 48.8325 38.1876C48.8072 38.1397 48.7756 38.1046 48.7439 38.0599C48.5859 37.8451 48.3769 37.6738 48.1362 37.5617C48.0887 37.5426 48.0412 37.5202 47.9874 37.5075C47.838 37.4588 47.6823 37.433 47.5253 37.4308ZM42.7522 43.8172H52.2478V50.6475H42.7522V43.8172Z" fill="white"/>
</svg>
