<svg width="57" height="73" viewBox="0 0 57 73" fill="none" xmlns="http://www.w3.org/2000/svg">
    <path d="M55.3235 73C56.2456 73 57 72.2179 57 71.2619V1.7381C57 0.782143 56.2456 0 55.3235 0H1.67647C0.754412 0 0 0.782143 0 1.7381V71.2619C0 72.2179 0.754412 73 1.67647 73H55.3235ZM32.6912 69.5238H24.3088V57.3571H32.6912V69.5238ZM3.35294 3.47619H53.6471V69.5238H36.0441V55.619C36.0441 54.6631 35.2897 53.881 34.3676 53.881H22.6324C21.7103 53.881 20.9559 54.6631 20.9559 55.619V69.5238H3.35294V3.47619Z" fill="white"/>
    <path d="M16.7647 8.69046H10.0588C9.13679 8.69046 8.38238 9.47261 8.38238 10.4286V17.3809C8.38238 18.3369 9.13679 19.119 10.0588 19.119H16.7647C17.6868 19.119 18.4412 18.3369 18.4412 17.3809V10.4286C18.4412 9.47261 17.6868 8.69046 16.7647 8.69046ZM15.0883 15.6428H11.7353V12.1667H15.0883V15.6428ZM25.1471 19.119H31.853C32.775 19.119 33.5294 18.3369 33.5294 17.3809V10.4286C33.5294 9.47261 32.775 8.69046 31.853 8.69046H25.1471C24.225 8.69046 23.4706 9.47261 23.4706 10.4286V17.3809C23.4706 18.3369 24.225 19.119 25.1471 19.119ZM26.8236 12.1667H30.1765V15.6428H26.8236V12.1667ZM40.2353 19.119H46.9412C47.8633 19.119 48.6177 18.3369 48.6177 17.3809V10.4286C48.6177 9.47261 47.8633 8.69046 46.9412 8.69046H40.2353C39.3133 8.69046 38.5588 9.47261 38.5588 10.4286V17.3809C38.5588 18.3369 39.3133 19.119 40.2353 19.119ZM41.9118 12.1667H45.2647V15.6428H41.9118V12.1667ZM16.7647 22.5952H10.0588C9.13679 22.5952 8.38238 23.3774 8.38238 24.3333V31.2857C8.38238 32.2417 9.13679 33.0238 10.0588 33.0238H16.7647C17.6868 33.0238 18.4412 32.2417 18.4412 31.2857V24.3333C18.4412 23.3774 17.6868 22.5952 16.7647 22.5952ZM15.0883 29.5476H11.7353V26.0714H15.0883V29.5476ZM25.1471 33.0238H31.853C32.775 33.0238 33.5294 32.2417 33.5294 31.2857V24.3333C33.5294 23.3774 32.775 22.5952 31.853 22.5952H25.1471C24.225 22.5952 23.4706 23.3774 23.4706 24.3333V31.2857C23.4706 32.2417 24.225 33.0238 25.1471 33.0238ZM26.8236 26.0714H30.1765V29.5476H26.8236V26.0714ZM40.2353 33.0238H46.9412C47.8633 33.0238 48.6177 32.2417 48.6177 31.2857V24.3333C48.6177 23.3774 47.8633 22.5952 46.9412 22.5952H40.2353C39.3133 22.5952 38.5588 23.3774 38.5588 24.3333V31.2857C38.5588 32.2417 39.3133 33.0238 40.2353 33.0238ZM41.9118 26.0714H45.2647V29.5476H41.9118V26.0714ZM16.7647 36.5H10.0588C9.13679 36.5 8.38238 37.2821 8.38238 38.2381V45.1905C8.38238 46.1464 9.13679 46.9286 10.0588 46.9286H16.7647C17.6868 46.9286 18.4412 46.1464 18.4412 45.1905V38.2381C18.4412 37.2821 17.6868 36.5 16.7647 36.5ZM15.0883 43.4524H11.7353V39.9762H15.0883V43.4524ZM25.1471 46.9286H31.853C32.775 46.9286 33.5294 46.1464 33.5294 45.1905V38.2381C33.5294 37.2821 32.775 36.5 31.853 36.5H25.1471C24.225 36.5 23.4706 37.2821 23.4706 38.2381V45.1905C23.4706 46.1464 24.225 46.9286 25.1471 46.9286ZM26.8236 39.9762H30.1765V43.4524H26.8236V39.9762ZM40.2353 46.9286H46.9412C47.8633 46.9286 48.6177 46.1464 48.6177 45.1905V38.2381C48.6177 37.2821 47.8633 36.5 46.9412 36.5H40.2353C39.3133 36.5 38.5588 37.2821 38.5588 38.2381V45.1905C38.5588 46.1464 39.3133 46.9286 40.2353 46.9286ZM41.9118 39.9762H45.2647V43.4524H41.9118V39.9762Z" fill="white"/>
</svg>
