<svg width="79" height="85" viewBox="0 0 79 85" fill="none" xmlns="http://www.w3.org/2000/svg">
    <path d="M71.4342 48.2344C72.2242 46.7398 72.6356 45.0626 72.6356 43.3688C72.6356 40.1473 71.1379 37.0918 68.587 35.1322C70.9075 29.918 68.587 23.807 63.4357 21.4821C58.2844 19.1573 52.2114 21.4821 49.9073 26.6798C48.9857 28.7389 48.7718 31.0472 49.282 33.2392C47.6197 34.003 46.1714 35.1821 45.1181 36.6932C44.6079 36.4275 44.0977 36.1784 43.5546 35.9625C44.7067 33.9698 45.2992 31.7114 45.2992 29.4032C45.2827 25.2019 43.2748 21.2496 39.901 18.7754C42.9951 12.2492 40.2631 4.41119 33.7951 1.28926C27.3272 -1.83266 19.5591 0.907325 16.4486 7.43347C15.132 10.2233 14.8193 13.3784 15.5928 16.3675C13.4697 17.2808 11.61 18.7421 10.2111 20.602C6.83722 25.1188 6.72201 31.2963 9.91483 35.9459C1.66946 39.4498 -2.19813 49.0315 1.27447 57.3677C4.53312 65.1559 13.1241 69.1579 21.1061 66.6006V81.9611C21.1061 83.6383 22.4557 85 24.1179 85H27.4918C29.154 85 30.5036 83.6383 30.5036 81.9611V65.6706C33.3343 67.0323 36.4778 67.5471 39.5883 67.132C42.7647 71.7982 48.5743 73.8242 53.9231 72.1138V81.9611C53.9231 83.6383 55.2726 85 56.9348 85H60.3087C61.9709 85 63.3205 83.6383 63.3369 81.9611V72.2632C70.1011 73.957 76.9476 69.7889 78.6263 62.9639C80.1075 56.9359 77.0792 50.7087 71.4342 48.2344ZM27.9362 81.9611C27.9362 82.1936 27.7387 82.3929 27.5082 82.3929H24.1344C23.904 82.3929 23.7065 82.1936 23.7065 81.9611V65.5046C24.8585 64.8902 25.9448 64.1263 26.9322 63.2628C27.2614 63.5617 27.607 63.8274 27.9526 64.0931L27.9362 81.9611ZM29.9934 62.3661C29.9605 62.3328 29.9275 62.3162 29.8946 62.2996C29.154 61.7848 28.4628 61.2036 27.8374 60.556C27.5905 60.3069 27.2614 60.1575 26.9158 60.1575C26.5702 60.1575 26.2245 60.3069 25.9941 60.556C24.8256 61.7682 23.4596 62.7646 21.9455 63.4787C21.9126 63.4953 21.8632 63.5119 21.8303 63.5285C14.9838 66.667 6.90305 63.6115 3.80898 56.6868C0.714904 49.7621 3.71023 41.6418 10.5567 38.5033C11.1656 38.221 11.791 37.9885 12.4329 37.8058C13.1241 37.6065 13.5191 36.8759 13.3051 36.195C13.2558 35.9958 13.1406 35.8131 13.0089 35.6636C9.07548 31.4291 9.27297 24.7867 13.4697 20.8179C14.6382 19.7053 16.0371 18.8916 17.5677 18.4266C18.2425 18.2108 18.6375 17.4967 18.4235 16.7992C18.4235 16.766 18.4071 16.7494 18.3906 16.7328C16.3992 11.2861 19.1641 5.25809 24.5458 3.24877C29.9275 1.23944 35.9182 4.02925 37.9096 9.4594C39.0123 12.4485 38.6996 15.7863 37.0538 18.5263C36.6917 19.1407 36.8727 19.9378 37.4817 20.3197C37.4817 20.3197 37.4981 20.3197 37.4981 20.3363C40.691 22.2294 42.6494 25.6668 42.6659 29.4032C42.6659 31.7446 41.9088 34.003 40.477 35.8463C40.0327 36.4109 40.1479 37.2412 40.7074 37.673C40.8391 37.7726 40.9872 37.8556 41.1518 37.9054C48.3439 39.948 52.5241 47.4871 50.4998 54.7439C48.854 60.6224 43.5382 64.6909 37.4817 64.6909C34.832 64.6743 32.2152 63.8772 29.9934 62.3661ZM60.7531 81.9611C60.7531 82.1936 60.5556 82.3929 60.3252 82.3929H56.9513C56.7209 82.3929 56.5234 82.1936 56.5234 81.9611V70.9513C57.1488 70.5694 57.7413 70.1543 58.3008 69.6727C59.0579 70.3203 59.8808 70.8683 60.7695 71.3167L60.7531 81.9611ZM66.3816 70.038C65.0815 70.038 63.7813 69.7889 62.5799 69.2907C62.547 69.2741 62.4976 69.2575 62.4647 69.2409C61.2468 68.7095 60.1277 67.9457 59.206 66.9825C58.9592 66.7334 58.63 66.584 58.2844 66.584C57.9388 66.584 57.6096 66.7334 57.3627 66.9825C56.5892 67.7962 55.684 68.4771 54.6966 68.9918C54.6637 69.0084 54.6307 69.025 54.5978 69.0417C53.1989 69.7391 51.6519 70.1044 50.0884 70.1044C47.126 70.1044 44.3117 68.7926 42.3861 66.5175C50.8619 63.8108 55.5688 54.6775 52.8862 46.1254C51.8823 42.9371 49.9403 40.1306 47.2906 38.1047C48.278 36.7596 49.6605 35.7633 51.2404 35.2817C51.9152 35.0824 52.3102 34.3518 52.0962 33.6543C52.0962 33.6211 52.0798 33.6045 52.0633 33.5713C50.5986 29.5692 52.6229 25.1188 56.5892 23.6409C60.5556 22.163 64.9663 24.2055 66.431 28.2076C67.2374 30.4162 67.007 32.8738 65.8056 34.8832C65.4435 35.4976 65.6246 36.2947 66.25 36.6766C66.25 36.6766 66.2664 36.6766 66.2664 36.6932C68.6199 38.0881 70.0517 40.6122 70.0682 43.3688C70.0682 45.0792 69.5086 46.7564 68.4553 48.1015C68.011 48.6661 68.1262 49.4964 68.6857 49.9282C68.8174 50.0278 68.9655 50.1108 69.1301 50.1607C74.4624 51.6718 77.573 57.268 76.0753 62.665C74.8245 67.0157 70.8746 70.038 66.3816 70.038Z" fill="white"/>
</svg>
