<svg width="319" height="319" viewBox="0 0 319 319" fill="none" xmlns="http://www.w3.org/2000/svg">
    <path d="M153.623 78.3785V0C125.588 0.937656 98.2994 9.27877 74.5282 24.1766C50.757 39.0744 31.3494 59.9985 18.2756 84.8247L88.8114 118.989C95.4169 107.388 104.795 97.6068 116.105 90.5197C127.416 83.4326 140.306 79.2612 153.623 78.3785Z" fill="#EC6E00"/>
    <path d="M229.156 118.989L299.691 84.8247C286.619 59.9976 267.211 39.0728 243.44 24.1748C219.669 9.27683 192.38 0.936285 164.344 0V78.3785C177.661 79.26 190.552 83.431 201.863 90.5182C213.174 97.6054 222.551 107.388 229.156 118.989Z" fill="#EC6E00"/>
    <path d="M304.425 94.5244L233.869 128.689C239.797 143.386 241.275 159.502 238.119 175.033C234.963 190.564 227.313 204.824 216.119 216.039L267.733 275.005C291.798 252.438 308.254 222.946 314.825 190.612C321.397 158.277 317.758 124.699 304.412 94.5244H304.425Z" fill="#EC6E00"/>
    <path d="M78.2731 158.96C78.2627 148.586 80.2541 138.308 84.1382 128.689L13.5957 94.5244C0.254933 124.7 -3.38148 158.277 3.18955 190.61C9.76057 222.944 26.2142 252.435 50.2742 275.005L101.888 216.039C94.389 208.549 88.4424 199.651 84.3899 189.855C80.3373 180.06 78.2587 169.561 78.2731 158.96Z" fill="#EC6E00"/>
    <path d="M159.01 239.73C141.282 239.76 124.04 233.928 109.969 223.139L58.348 282.112C86.7479 305.338 122.303 318.027 158.987 318.027C195.671 318.027 231.226 305.338 259.626 282.112L207.998 223.139C193.942 233.916 176.721 239.749 159.01 239.73Z" fill="#EC6E00"/>
    <path d="M159.01 229.397C197.896 229.397 229.418 197.864 229.418 158.966C229.418 120.069 197.896 88.5361 159.01 88.5361C120.125 88.5361 88.6026 120.069 88.6026 158.966C88.6026 197.864 120.125 229.397 159.01 229.397Z" fill="black"/>
    <path d="M188.868 56.8844L193.507 41.8365L190.901 41.035L191.837 37.9971L197.965 39.8898L192.39 57.9756L188.868 56.8844Z" fill="white"/>
    <path d="M214.725 46.6527L213.432 49.5559L207.675 46.9963L205.843 49.4414C206.257 49.5484 206.662 49.6857 207.056 49.8523C207.895 50.1831 208.657 50.6851 209.292 51.3264C209.928 51.9677 210.422 52.7342 210.746 53.5772C211.019 54.3623 211.133 55.1945 211.078 56.0242C211.024 56.8539 210.803 57.6642 210.429 58.4068C210.087 59.252 209.577 60.0184 208.928 60.6589C208.28 61.2995 207.507 61.8007 206.658 62.1317C205.761 62.4529 204.809 62.5875 203.858 62.5272C202.907 62.467 201.979 62.2132 201.13 61.7815C200.029 61.3694 199.028 60.7291 198.193 59.9025C197.357 59.0759 196.706 58.0818 196.282 56.9855L198.685 54.5741C198.866 55.4317 199.241 56.2362 199.783 56.9249C200.362 57.6965 201.13 58.3065 202.012 58.6965C202.472 58.9373 202.979 59.0773 203.498 59.107C204.016 59.1367 204.535 59.0554 205.02 58.8687C205.505 58.6819 205.945 58.3939 206.309 58.0239C206.674 57.6539 206.956 57.2104 207.136 56.7229C207.351 56.2825 207.467 55.8007 207.476 55.3109C207.486 54.8211 207.388 54.3352 207.19 53.887C206.704 52.934 205.884 52.1931 204.887 51.8057C203.554 51.2411 202.091 51.0524 200.658 51.2601L206.719 43.0962L214.725 46.6527Z" fill="white"/>
    <path d="M226.496 73.8386C225.536 74.151 224.515 74.2325 223.518 74.0766C222.52 73.9207 221.573 73.5316 220.754 72.9411C219.934 72.3506 219.266 71.5752 218.802 70.6778C218.339 69.7805 218.093 68.7864 218.086 67.7763C217.951 65.531 218.788 63.1443 220.597 60.6161C222.406 58.0879 224.397 56.5432 226.57 55.9818C227.53 55.6692 228.55 55.5876 229.547 55.7435C230.545 55.8994 231.491 56.2885 232.31 56.8792C233.129 57.4698 233.797 58.2454 234.26 59.1429C234.723 60.0403 234.967 61.0343 234.974 62.0441C235.108 64.2894 234.271 66.6762 232.462 69.2044C230.653 71.7325 228.664 73.2773 226.496 73.8386ZM231.519 62.2799C231.56 60.9327 231.203 59.9964 230.449 59.471C229.694 58.9456 228.693 58.9052 227.445 59.3498C226.186 59.8146 224.907 60.9597 223.594 62.7851C222.281 64.6105 221.574 66.1934 221.574 67.5339C221.574 68.8743 221.877 69.8106 222.644 70.3629C223.412 70.9153 224.422 70.9557 225.674 70.4774C226.927 69.9992 228.206 68.8541 229.519 67.0287C230.832 65.2032 231.479 63.6203 231.519 62.2799Z" fill="white"/>
    <path d="M238.091 84.5008C237.098 84.6705 236.078 84.6039 235.115 84.3066C234.152 84.0092 233.273 83.4894 232.548 82.789C231.823 82.0887 231.273 81.2276 230.942 80.2752C230.611 79.3228 230.509 78.306 230.644 77.3069C230.832 75.0616 232.004 72.8163 234.159 70.571C236.314 68.3257 238.506 67.0841 240.738 66.8461C241.731 66.6764 242.751 66.7429 243.714 67.0403C244.677 67.3376 245.556 67.8575 246.281 68.5578C247.006 69.2581 247.556 70.1193 247.887 71.0716C248.218 72.024 248.32 73.0408 248.185 74.04C247.997 76.2853 246.825 78.5306 244.67 80.7758C242.515 83.0211 240.322 84.2628 238.091 84.5008ZM244.731 73.7908C244.96 72.475 244.735 71.4961 244.057 70.8539C243.379 70.2118 242.392 70.0276 241.094 70.3016C239.788 70.5755 238.354 71.523 236.792 73.1441C235.229 74.7652 234.332 76.2336 234.098 77.5494C233.856 78.8629 234.098 79.853 234.772 80.5064C235.445 81.1598 236.448 81.3484 237.755 81.0587C239.061 80.7691 240.495 79.8126 242.057 78.196C243.62 76.5794 244.495 75.1042 244.731 73.8042V73.7908Z" fill="white"/>
    <path d="M248.01 96.7062C247.002 96.7317 246.003 96.5194 245.093 96.0866C244.183 95.6538 243.387 95.0126 242.771 94.215C242.154 93.4173 241.734 92.4857 241.545 91.4955C241.355 90.5053 241.402 89.4843 241.68 88.5154C242.188 86.3105 243.669 84.2606 246.125 82.3656C248.58 80.4705 250.928 79.5567 253.168 79.6241C254.176 79.5986 255.175 79.8108 256.085 80.2436C256.995 80.6764 257.791 81.3176 258.407 82.1153C259.024 82.9129 259.444 83.8446 259.633 84.8348C259.823 85.825 259.776 86.8459 259.498 87.8149C258.995 90.0153 257.514 92.0652 255.053 93.9647C252.593 95.8642 250.246 96.7781 248.01 96.7062ZM256.09 87.0605C256.508 85.7941 256.434 84.7927 255.868 84.0563C255.303 83.3198 254.353 82.9965 253.02 83.0863C251.673 83.1716 250.118 83.9036 248.353 85.2822C246.589 86.6608 245.483 87.9833 245.034 89.2496C244.585 90.516 244.659 91.5241 245.256 92.274C245.853 93.024 246.809 93.3473 248.125 93.244C249.471 93.1429 251.013 92.4087 252.798 91.0279C254.582 89.647 255.72 88.3403 256.138 87.0739L256.09 87.0605Z" fill="white"/>
    <path d="M264.662 147.226L280.332 145.738L280.076 143.043L283.241 142.74L283.847 149.126L264.992 150.918L264.662 147.226Z" fill="white"/>
    <path d="M284.062 167.137L280.884 167.07L281.025 160.772L278.063 160.024C278.124 160.448 278.154 160.876 278.15 161.304C278.167 162.206 277.996 163.102 277.648 163.935C277.301 164.767 276.784 165.518 276.13 166.14C275.513 166.697 274.79 167.123 274.004 167.393C273.219 167.663 272.386 167.77 271.558 167.71C270.647 167.725 269.743 167.553 268.901 167.206C268.059 166.858 267.297 166.342 266.662 165.689C266.023 164.984 265.533 164.157 265.222 163.257C264.91 162.358 264.784 161.405 264.851 160.455C264.84 159.058 265.144 157.677 265.74 156.414C266.173 155.577 266.735 154.814 267.403 154.15L270.555 155.444C269.802 155.971 269.183 156.665 268.746 157.473C268.309 158.281 268.066 159.18 268.036 160.098C267.999 160.632 268.075 161.168 268.26 161.671C268.444 162.174 268.733 162.632 269.107 163.015C269.843 163.715 270.826 164.095 271.841 164.072C272.33 164.099 272.818 164.019 273.273 163.838C273.728 163.656 274.137 163.378 274.474 163.022C275.168 162.206 275.536 161.162 275.504 160.091C275.508 158.644 275.117 157.223 274.373 155.983L284.251 158.441L284.062 167.137Z" fill="white"/>
    <path d="M263.558 188.47C262.897 187.707 262.425 186.798 262.181 185.817C261.937 184.837 261.928 183.813 262.155 182.828C262.381 181.843 262.837 180.926 263.484 180.151C264.132 179.376 264.953 178.764 265.881 178.366C267.906 177.369 270.431 177.219 273.457 177.915C276.483 178.611 278.676 179.848 280.036 181.627C280.697 182.39 281.169 183.299 281.413 184.28C281.657 185.26 281.666 186.284 281.439 187.269C281.213 188.253 280.758 189.17 280.11 189.946C279.462 190.721 278.641 191.332 277.713 191.73C275.683 192.736 273.161 192.889 270.144 192.188C267.134 191.495 264.945 190.255 263.558 188.47ZM276.157 188.639C277.405 188.158 278.13 187.467 278.332 186.564C278.534 185.661 278.184 184.721 277.282 183.742C276.373 182.765 274.817 182.024 272.629 181.519C270.44 181.014 268.71 180.993 267.457 181.465C266.205 181.936 265.437 182.63 265.262 183.546C265.087 184.462 265.403 185.419 266.326 186.389C267.248 187.359 268.804 188.093 270.999 188.598C273.194 189.103 274.945 189.117 276.157 188.639Z" fill="white"/>
    <path d="M258.191 203.282C257.651 202.43 257.318 201.463 257.221 200.459C257.124 199.455 257.265 198.442 257.632 197.503C257.999 196.563 258.583 195.723 259.335 195.052C260.088 194.38 260.988 193.895 261.962 193.636C264.113 192.945 266.631 193.169 269.518 194.31C272.404 195.45 274.395 196.995 275.49 198.944C276.031 199.796 276.363 200.763 276.461 201.767C276.558 202.771 276.417 203.784 276.05 204.723C275.682 205.663 275.099 206.502 274.347 207.174C273.594 207.846 272.694 208.331 271.719 208.59C269.569 209.286 267.051 209.061 264.164 207.916C261.278 206.771 259.287 205.226 258.191 203.282ZM270.629 205.303C271.935 205.013 272.75 204.434 273.093 203.572C273.437 202.709 273.214 201.726 272.46 200.628C271.706 199.53 270.272 198.567 268.178 197.752C266.083 196.937 264.38 196.661 263.073 196.943C261.767 197.226 260.939 197.799 260.595 198.681C260.252 199.564 260.461 200.554 261.269 201.645C262.077 202.736 263.471 203.666 265.565 204.515C267.659 205.363 269.329 205.579 270.629 205.282V205.303Z" fill="white"/>
    <path d="M250.704 217.152C250.294 216.23 250.108 215.226 250.158 214.219C250.209 213.213 250.496 212.232 250.995 211.357C251.495 210.482 252.193 209.736 253.034 209.181C253.874 208.625 254.834 208.275 255.835 208.159C258.079 207.782 260.548 208.363 263.242 209.904C265.935 211.444 267.679 213.263 268.474 215.36C268.883 216.281 269.07 217.285 269.019 218.292C268.968 219.298 268.682 220.279 268.182 221.154C267.683 222.03 266.985 222.775 266.144 223.331C265.303 223.886 264.344 224.236 263.343 224.352C261.098 224.729 258.629 224.148 255.936 222.608C253.242 221.067 251.498 219.249 250.704 217.152ZM262.723 220.937C264.07 220.834 264.968 220.385 265.417 219.59C265.866 218.795 265.798 217.794 265.215 216.586C264.629 215.387 263.349 214.228 261.397 213.117C259.444 212.005 257.801 211.487 256.461 211.574C255.121 211.662 254.225 212.113 253.767 212.921C253.31 213.73 253.363 214.754 253.969 215.946C254.575 217.138 255.855 218.297 257.808 219.408C259.76 220.519 261.417 221.038 262.75 220.937H262.723Z" fill="white"/>
    <path d="M193.218 259.66L198.053 274.647L200.645 273.805L201.622 276.837L195.521 278.804L189.71 260.792L193.218 259.66Z" fill="white"/>
    <path d="M177.912 282.893L177.306 279.774L183.488 278.569L183.582 275.511C183.18 275.66 182.769 275.779 182.35 275.868C181.474 276.081 180.563 276.108 179.676 275.948C178.789 275.788 177.945 275.444 177.198 274.938C176.522 274.454 175.951 273.838 175.519 273.127C175.087 272.417 174.804 271.626 174.687 270.802C174.48 269.915 174.457 268.995 174.619 268.098C174.781 267.201 175.125 266.347 175.629 265.589C176.179 264.813 176.88 264.157 177.69 263.66C178.5 263.164 179.403 262.837 180.343 262.699C181.712 262.38 183.135 262.38 184.504 262.699C185.414 262.944 186.28 263.331 187.07 263.844L186.477 267.212C185.837 266.616 185.07 266.172 184.235 265.912C183.317 265.619 182.34 265.561 181.393 265.744C180.878 265.811 180.383 265.987 179.941 266.261C179.499 266.534 179.12 266.899 178.83 267.33C178.54 267.762 178.346 268.25 178.259 268.763C178.173 269.276 178.197 269.801 178.33 270.304C178.403 270.788 178.583 271.25 178.857 271.657C179.13 272.063 179.491 272.404 179.912 272.655C180.857 273.16 181.956 273.297 182.996 273.039C184.41 272.735 185.714 272.05 186.767 271.058L186.477 281.229L177.912 282.893Z" fill="white"/>
    <path d="M152.708 267.38C153.317 266.577 154.107 265.928 155.013 265.487C155.92 265.046 156.917 264.824 157.925 264.841C158.933 264.857 159.923 265.111 160.815 265.581C161.707 266.052 162.475 266.726 163.057 267.549C164.458 269.322 165.131 271.761 165.078 274.864C165.024 277.967 164.272 280.371 162.822 282.078C162.213 282.881 161.423 283.53 160.516 283.971C159.61 284.412 158.612 284.634 157.604 284.617C156.596 284.601 155.606 284.347 154.715 283.877C153.823 283.406 153.055 282.732 152.472 281.91C151.071 280.14 150.398 277.702 150.452 274.594C150.499 271.516 151.247 269.145 152.708 267.38ZM155.172 279.741C155.9 280.859 156.728 281.425 157.657 281.438C158.58 281.438 159.428 280.913 160.189 279.821C160.95 278.73 161.361 277.053 161.394 274.803C161.428 272.553 161.091 270.863 160.371 269.738C159.65 268.613 158.815 268.034 157.873 268.02C156.93 268.007 156.075 268.546 155.32 269.65C154.566 270.755 154.169 272.432 154.135 274.682C154.102 276.932 154.445 278.622 155.172 279.741Z" fill="white"/>
    <path d="M137.065 265.379C137.779 264.667 138.65 264.133 139.609 263.821C140.567 263.508 141.586 263.426 142.582 263.581C143.578 263.736 144.524 264.123 145.343 264.712C146.161 265.3 146.83 266.074 147.294 266.969C148.438 268.922 148.771 271.43 148.29 274.493C147.81 277.555 146.733 279.832 145.058 281.323C144.344 282.035 143.473 282.569 142.514 282.881C141.556 283.194 140.537 283.276 139.541 283.121C138.545 282.966 137.599 282.579 136.781 281.99C135.962 281.402 135.294 280.628 134.83 279.733C133.685 277.78 133.353 275.272 133.833 272.209C134.313 269.147 135.391 266.87 137.065 265.379ZM137.806 277.955C138.371 279.161 139.112 279.841 140.028 279.976C140.944 280.111 141.853 279.7 142.762 278.723C143.671 277.746 144.297 276.143 144.647 273.92C144.998 271.697 144.89 269.973 144.331 268.754C143.772 267.535 143.031 266.861 142.095 266.733C141.159 266.605 140.243 267.009 139.341 267.999C138.439 268.99 137.819 270.593 137.469 272.822C137.119 275.052 137.233 276.749 137.806 277.955Z" fill="white"/>
    <path d="M121.908 261.062C122.718 260.462 123.659 260.062 124.654 259.893C125.648 259.725 126.668 259.793 127.631 260.092C128.594 260.391 129.473 260.912 130.198 261.615C130.922 262.317 131.471 263.179 131.799 264.133C132.648 266.23 132.612 268.758 131.692 271.718C130.771 274.677 129.366 276.783 127.476 278.036C126.666 278.634 125.726 279.034 124.733 279.202C123.74 279.37 122.721 279.302 121.759 279.004C120.797 278.706 119.918 278.185 119.194 277.485C118.47 276.784 117.921 275.923 117.591 274.971C116.743 272.874 116.779 270.344 117.699 267.38C118.619 264.416 120.022 262.31 121.908 261.062ZM120.81 273.617C121.2 274.897 121.836 275.674 122.716 275.948C123.596 276.222 124.558 275.941 125.604 275.106C126.65 274.271 127.506 272.778 128.17 270.627C128.843 268.478 128.978 266.76 128.608 265.474C128.237 264.187 127.591 263.406 126.688 263.13C125.786 262.853 124.817 263.13 123.786 263.978C122.756 264.827 121.901 266.322 121.234 268.478C120.568 270.633 120.426 272.364 120.81 273.644V273.617Z" fill="white"/>
    <path d="M68.058 214.012L54.4761 221.994L55.8565 224.344L53.1159 225.954L49.8702 220.417L66.1928 210.853L68.058 214.012Z" fill="white"/>
    <path d="M42.0725 204.096L44.9814 202.823L47.4998 208.602L50.5031 208.03C50.2706 207.671 50.0658 207.295 49.8904 206.905C49.4949 206.095 49.2721 205.211 49.2362 204.31C49.2003 203.409 49.3519 202.51 49.6816 201.671C50.0064 200.904 50.4829 200.21 51.0822 199.631C51.6816 199.053 52.3916 198.601 53.1697 198.303C53.9925 197.91 54.8871 197.689 55.7985 197.654C56.7098 197.62 57.6187 197.772 58.4691 198.101C59.3465 198.471 60.1397 199.015 60.8007 199.7C61.4616 200.386 61.9765 201.198 62.314 202.089C62.8472 203.137 63.1528 204.286 63.2108 205.461C63.2689 206.636 63.078 207.81 62.6507 208.906L59.2839 209.054C59.7293 208.3 59.9965 207.455 60.065 206.582C60.1553 205.622 60 204.656 59.6138 203.773C59.4239 203.272 59.1301 202.818 58.7517 202.439C58.3733 202.061 57.9189 201.767 57.4186 201.577C56.4577 201.252 55.4073 201.32 54.4962 201.766C54.0422 201.946 53.633 202.224 53.297 202.578C52.9609 202.933 52.7061 203.357 52.5501 203.82C52.2627 204.852 52.3684 205.953 52.8465 206.912C53.4445 208.231 54.3952 209.359 55.5938 210.172L45.601 212.085L42.0725 204.096Z" fill="white"/>
    <path d="M51.7556 176.109C52.673 176.527 53.4789 177.156 54.1082 177.943C54.7375 178.731 55.1724 179.656 55.3777 180.643C55.583 181.631 55.5528 182.653 55.2897 183.626C55.0266 184.599 54.5379 185.497 53.8633 186.246C52.4402 188.007 50.2113 189.201 47.1767 189.83C44.142 190.459 41.6325 190.252 39.6483 189.21C38.7293 188.793 37.9216 188.165 37.2908 187.377C36.66 186.589 36.2238 185.663 36.0178 184.675C35.8119 183.687 35.8418 182.664 36.1052 181.689C36.3687 180.714 36.8582 179.816 37.534 179.066C38.9548 177.315 41.1904 176.122 44.2205 175.489C47.2507 174.856 49.7557 175.065 51.7556 176.109ZM40.2476 181.228C39.3184 182.185 38.9413 183.121 39.1299 184.024C39.3184 184.926 40.0322 185.64 41.2712 186.145C42.5102 186.651 44.2206 186.678 46.4292 186.22C48.6379 185.762 50.2001 185.054 51.1428 184.104C52.0856 183.155 52.4896 182.218 52.2674 181.289C52.0452 180.359 51.3583 179.652 50.1126 179.16C48.8668 178.669 47.1497 178.648 44.9478 179.106C42.7458 179.564 41.1769 180.272 40.2476 181.228Z" fill="white"/>
    <path d="M50.4223 160.415C51.2703 160.961 51.9775 161.7 52.4867 162.571C52.9959 163.442 53.2928 164.421 53.3531 165.428C53.4135 166.435 53.2357 167.442 52.8341 168.368C52.4325 169.293 51.8185 170.111 51.0418 170.755C49.3854 172.281 47.0084 173.139 43.9109 173.328C40.8133 173.516 38.3667 172.948 36.5711 171.624C35.7231 171.077 35.0159 170.339 34.5067 169.468C33.9974 168.597 33.7006 167.618 33.6403 166.611C33.5799 165.604 33.7578 164.597 34.1594 163.671C34.5609 162.746 35.1749 161.928 35.9515 161.284C37.608 159.755 39.9918 158.899 43.0826 158.711C46.1734 158.522 48.5907 159.095 50.4223 160.415ZM38.3016 163.817C37.2377 164.625 36.7394 165.494 36.7933 166.423C36.8471 167.353 37.4667 168.148 38.5979 168.828C39.7292 169.508 41.4463 169.778 43.6953 169.643C45.9444 169.508 47.6009 169.044 48.6716 168.235C49.7422 167.427 50.2405 166.558 50.1867 165.615C50.1328 164.672 49.5133 163.864 48.3618 163.197C47.2104 162.53 45.5068 162.261 43.2577 162.395C41.0086 162.53 39.3521 163.002 38.295 163.817H38.3016Z" fill="white"/>
    <path d="M51.3449 144.68C52.1056 145.342 52.6999 146.173 53.0793 147.108C53.4587 148.042 53.6126 149.053 53.5286 150.058C53.4447 151.063 53.1252 152.034 52.5961 152.893C52.0669 153.751 51.343 154.473 50.483 154.999C48.6245 156.279 46.1555 156.791 43.0759 156.535C39.9964 156.279 37.6485 155.365 36.0324 153.793C35.2713 153.132 34.6767 152.301 34.2968 151.366C33.9168 150.432 33.7622 149.422 33.8455 148.417C33.9288 147.412 34.2476 146.441 34.7761 145.582C35.3047 144.723 36.028 144.001 36.8876 143.474C38.7506 142.194 41.2196 141.685 44.2947 141.945C47.3451 142.201 49.7153 143.11 51.3449 144.68ZM38.8539 146.317C37.6867 146.972 37.0649 147.76 36.9886 148.681C36.9145 149.604 37.3926 150.486 38.4364 151.321C39.4801 152.157 41.1298 152.668 43.3587 152.857C45.5875 153.046 47.3114 152.817 48.483 152.183C49.6547 151.55 50.281 150.749 50.3618 149.806C50.4426 148.863 49.9511 147.98 48.9006 147.152C47.8501 146.323 46.2071 145.805 43.9647 145.629C41.7224 145.454 40.0188 145.663 38.8539 146.317Z" fill="white"/>
    <path d="M77.0745 91.2304L65.0952 81.0121L63.3242 83.0868L60.9068 81.0256L65.0682 76.1421L79.4649 88.4216L77.0745 91.2304Z" fill="white"/>
    <path d="M77.896 63.4111L80.0507 65.7417L75.4314 70.0258L76.9532 72.6729C77.216 72.3349 77.5042 72.0174 77.8152 71.7232C78.4485 71.0821 79.2087 70.5802 80.047 70.2497C80.8853 69.9191 81.7833 69.7671 82.6836 69.8035C83.5126 69.8609 84.3216 70.085 85.062 70.4623C85.8025 70.8396 86.4593 71.3624 86.9932 71.9994C87.6374 72.6441 88.142 73.4146 88.4757 74.2628C88.8093 75.1111 88.9649 76.019 88.9325 76.93C88.8744 77.8808 88.6229 78.8097 88.1933 79.6599C87.7638 80.51 87.1652 81.2635 86.4344 81.8741C85.6223 82.7256 84.6387 83.3947 83.5486 83.8371C82.4585 84.2795 81.2869 84.4852 80.1114 84.4405L78.8522 81.2814C79.7113 81.4511 80.5977 81.4235 81.4446 81.2005C82.3779 80.9701 83.2374 80.5065 83.9428 79.8534C84.3465 79.5251 84.6756 79.1145 84.9083 78.649C85.1409 78.1836 85.2718 77.6739 85.2922 77.1538C85.3126 76.6338 85.2221 76.1154 85.0265 75.6332C84.831 75.1509 84.5351 74.7158 84.1584 74.3569C83.838 73.9862 83.4407 73.6899 82.9941 73.4886C82.5475 73.2873 82.0623 73.186 81.5725 73.1916C80.5045 73.2641 79.5004 73.7267 78.7512 74.4916C77.7033 75.4914 76.9528 76.7621 76.5829 78.1627L71.4787 69.3522L77.896 63.4111Z" fill="white"/>
    <path d="M107.491 63.3034C107.4 64.3084 107.075 65.278 106.54 66.1335C106.005 66.989 105.276 67.7063 104.412 68.2273C103.548 68.7482 102.574 69.0581 101.568 69.1319C100.562 69.2056 99.5529 69.0411 98.6223 68.6517C96.499 67.8973 94.6359 66.1886 93.0333 63.5257C91.4307 60.8628 90.791 58.4267 91.1142 56.2173C91.2048 55.2124 91.5306 54.2429 92.0654 53.3873C92.6002 52.5318 93.3288 51.8142 94.1924 51.2928C95.056 50.7713 96.0301 50.4606 97.0361 50.3858C98.042 50.3111 99.0514 50.4743 99.9826 50.8623C102.11 51.6212 103.973 53.3298 105.572 55.9883C107.17 58.6467 107.809 61.0851 107.491 63.3034ZM98.8513 54.1359C97.6392 53.5791 96.6359 53.5387 95.8413 54.0147C95.0467 54.4929 94.6157 55.3955 94.5484 56.709C94.4811 58.0225 95.0265 59.6728 96.1915 61.606C97.3564 63.5392 98.5415 64.7786 99.7468 65.3578C100.952 65.9371 101.962 65.9708 102.77 65.4858C103.578 65.0008 104.016 64.0848 104.07 62.7443C104.124 61.4039 103.572 59.7806 102.407 57.8541C101.242 55.9276 100.057 54.7017 98.8513 54.1359Z" fill="white"/>
    <path d="M121.847 56.8505C121.612 57.8318 121.15 58.7439 120.497 59.5129C119.844 60.2819 119.019 60.8861 118.089 61.2765C117.159 61.6669 116.15 61.8325 115.144 61.7598C114.138 61.6872 113.163 61.3783 112.299 60.8583C110.305 59.7986 108.709 57.8384 107.511 54.9779C106.319 52.1354 106.036 49.6297 106.683 47.4607C106.919 46.4812 107.382 45.5711 108.035 44.8037C108.688 44.0363 109.512 43.4332 110.44 43.0431C111.369 42.653 112.376 42.4869 113.381 42.558C114.386 42.6292 115.36 42.9357 116.224 43.4529C118.218 44.5171 119.816 46.4795 121.019 49.34C122.222 52.2005 122.498 54.704 121.847 56.8505ZM114.622 46.5312C113.504 45.7992 112.519 45.6128 111.666 45.9721C110.813 46.3313 110.256 47.1643 109.996 48.4711C109.735 49.7823 110.041 51.4753 110.911 53.5499C111.782 55.6246 112.772 57.0346 113.881 57.78C114.992 58.521 115.989 58.7096 116.857 58.3458C117.726 57.9821 118.292 57.1401 118.541 55.8266C118.79 54.5131 118.473 52.8157 117.605 50.7411C116.736 48.6664 115.74 47.2586 114.622 46.5312Z" fill="white"/>
    <path d="M136.998 52.5601C136.621 53.495 136.03 54.3283 135.273 54.9926C134.515 55.6568 133.611 56.1335 132.635 56.3839C131.659 56.6344 130.638 56.6517 129.654 56.4344C128.67 56.2171 127.751 55.7714 126.971 55.1332C125.153 53.786 123.858 51.6126 123.086 48.6129C122.314 45.6132 122.406 43.0939 123.362 41.0552C123.738 40.1203 124.329 39.287 125.087 38.6227C125.845 37.9585 126.749 37.4818 127.725 37.2314C128.701 36.9809 129.722 36.9636 130.706 37.1809C131.69 37.3981 132.609 37.8439 133.389 38.4821C135.184 39.8293 136.479 42.0027 137.274 45.0024C138.042 47.9932 137.947 50.5056 136.998 52.5601ZM131.355 41.291C130.358 40.3929 129.411 40.065 128.513 40.3075C127.618 40.5366 126.944 41.2842 126.493 42.5371C126.042 43.79 126.103 45.5144 126.662 47.6968C127.22 49.8792 128.008 51.415 128.985 52.3108C129.961 53.2067 130.931 53.5435 131.846 53.3078C132.762 53.072 133.442 52.3243 133.867 51.058C134.291 49.7916 134.244 48.074 133.685 45.8916C133.126 43.7091 132.358 42.1801 131.355 41.291Z" fill="white"/>
    <path d="M120.069 158.34L128.338 144.195H119.989V141.164H133.833L123.059 159.674L120.069 158.34Z" fill="white"/>
    <path d="M144.546 141.164V144.181H138.567L137.894 147.01C138.294 146.943 138.699 146.907 139.106 146.903C139.961 146.864 140.815 147.004 141.613 147.315C142.411 147.626 143.135 148.1 143.738 148.708C144.28 149.282 144.7 149.96 144.973 150.701C145.246 151.442 145.367 152.23 145.328 153.019C145.363 153.888 145.219 154.756 144.904 155.567C144.588 156.379 144.109 157.116 143.496 157.734C142.842 158.358 142.067 158.842 141.22 159.157C140.372 159.472 139.47 159.611 138.567 159.566C137.233 159.613 135.907 159.355 134.688 158.812C133.888 158.412 133.153 157.894 132.507 157.276L133.665 154.258C134.156 154.929 134.791 155.481 135.523 155.875C136.323 156.317 137.222 156.549 138.136 156.548C138.629 156.581 139.123 156.508 139.586 156.334C140.048 156.16 140.468 155.889 140.818 155.54C141.167 155.19 141.438 154.77 141.612 154.307C141.786 153.845 141.859 153.35 141.826 152.857C141.844 152.392 141.759 151.929 141.577 151.5C141.396 151.072 141.122 150.689 140.776 150.378C139.988 149.736 138.989 149.409 137.974 149.462C136.6 149.485 135.258 149.886 134.096 150.621L136.224 141.191L144.546 141.164Z" fill="white"/>
    <path d="M165.973 157.033C165.407 157.806 164.667 158.434 163.813 158.867C162.959 159.3 162.015 159.526 161.058 159.526C160.1 159.526 159.156 159.3 158.302 158.867C157.448 158.434 156.708 157.806 156.142 157.033C154.795 155.367 154.122 153.063 154.122 150.122C154.122 147.181 154.795 144.886 156.142 143.238C156.708 142.465 157.448 141.837 158.302 141.404C159.156 140.971 160.1 140.745 161.058 140.745C162.015 140.745 162.959 140.971 163.813 141.404C164.667 141.837 165.407 142.465 165.973 143.238C167.32 144.904 167.993 147.208 167.993 150.149C167.993 153.09 167.32 155.385 165.973 157.033ZM163.441 145.34C162.732 144.289 161.937 143.763 161.058 143.763C160.178 143.763 159.383 144.289 158.674 145.34C157.969 146.39 157.614 147.985 157.61 150.122C157.61 152.257 157.96 153.86 158.66 154.918C159.361 155.976 160.162 156.508 161.058 156.508C161.953 156.508 162.754 155.976 163.455 154.918C164.155 153.86 164.505 152.257 164.505 150.122C164.505 147.987 164.155 146.39 163.441 145.34Z" fill="white"/>
    <path d="M181.272 157.033C180.706 157.806 179.966 158.434 179.112 158.867C178.258 159.3 177.314 159.526 176.357 159.526C175.399 159.526 174.455 159.3 173.601 158.867C172.747 158.434 172.007 157.806 171.441 157.033C170.094 155.367 169.421 153.063 169.421 150.122C169.421 147.181 170.094 144.886 171.441 143.238C172.007 142.465 172.747 141.837 173.601 141.404C174.455 140.971 175.399 140.745 176.357 140.745C177.314 140.745 178.258 140.971 179.112 141.404C179.966 141.837 180.706 142.465 181.272 143.238C182.619 144.904 183.292 147.208 183.292 150.149C183.292 153.09 182.619 155.385 181.272 157.033ZM178.74 145.34C178.031 144.289 177.236 143.763 176.357 143.763C175.477 143.763 174.682 144.289 173.973 145.34C173.264 146.39 172.909 147.985 172.909 150.122C172.909 152.257 173.259 153.86 173.959 154.918C174.66 155.976 175.461 156.508 176.357 156.508C177.252 156.508 178.053 155.976 178.754 154.918C179.454 153.86 179.804 152.257 179.804 150.122C179.804 147.987 179.454 146.39 178.74 145.34Z" fill="white"/>
    <path d="M196.571 157.033C196.005 157.806 195.265 158.434 194.411 158.867C193.557 159.3 192.613 159.526 191.656 159.526C190.698 159.526 189.754 159.3 188.9 158.867C188.046 158.434 187.306 157.806 186.74 157.033C185.393 155.367 184.72 153.063 184.72 150.122C184.72 147.181 185.393 144.886 186.74 143.238C187.306 142.465 188.046 141.837 188.9 141.404C189.754 140.971 190.698 140.745 191.656 140.745C192.613 140.745 193.557 140.971 194.411 141.404C195.265 141.837 196.005 142.465 196.571 143.238C197.918 144.904 198.591 147.208 198.591 150.149C198.591 153.09 197.918 155.385 196.571 157.033ZM194.039 145.34C193.335 144.289 192.54 143.763 191.656 143.763C190.774 143.763 189.986 144.289 189.272 145.34C188.558 146.39 188.208 147.987 188.208 150.122C188.208 152.257 188.558 153.86 189.258 154.918C189.959 155.976 190.76 156.508 191.656 156.508C192.551 156.508 193.352 155.976 194.053 154.918C194.753 153.86 195.103 152.257 195.103 150.122C195.103 147.987 194.753 146.39 194.039 145.34Z" fill="white"/>
    <path d="M132.594 179.929V185.109H130.379V173.072H132.594V174.089C132.877 173.675 133.262 173.341 133.711 173.118C134.16 172.895 134.659 172.791 135.16 172.816C135.657 172.798 136.152 172.883 136.616 173.065C137.079 173.247 137.5 173.522 137.853 173.873C138.625 174.747 139.045 175.875 139.034 177.04C139.023 178.206 138.581 179.326 137.792 180.185C137.064 180.865 136.096 181.231 135.099 181.202C134.609 181.21 134.125 181.099 133.688 180.877C133.251 180.655 132.876 180.329 132.594 179.929ZM134.56 174.782C134.032 174.763 133.517 174.952 133.126 175.308C132.882 175.515 132.687 175.774 132.558 176.067C132.428 176.36 132.367 176.678 132.379 176.999C132.365 177.32 132.423 177.64 132.549 177.936C132.675 178.232 132.865 178.496 133.106 178.709C133.52 179.054 134.044 179.241 134.583 179.234C135.123 179.228 135.642 179.03 136.048 178.676C136.275 178.461 136.452 178.2 136.569 177.911C136.685 177.621 136.737 177.31 136.722 176.999C136.737 176.706 136.691 176.414 136.587 176.141C136.483 175.867 136.324 175.618 136.119 175.41C135.913 175.202 135.667 175.038 135.395 174.93C135.124 174.822 134.832 174.772 134.54 174.782H134.56Z" fill="white"/>
    <path d="M140.58 185.109L143.469 179.767L139.725 173.072H142.291L144.728 177.544L146.91 173.072H149.415L143.072 185.109H140.58Z" fill="white"/>
    <path d="M156.815 167.851H158.835C158.745 168.53 158.449 169.165 157.989 169.672C157.528 170.179 156.924 170.533 156.256 170.687L155.435 170.923L154.916 171.064C154.634 171.138 154.418 171.206 154.283 171.253C154.099 171.319 153.919 171.398 153.745 171.488C153.543 171.586 153.359 171.716 153.199 171.872C152.65 172.404 152.331 173.129 152.31 173.893C152.616 173.512 153.029 173.23 153.496 173.085C154.003 172.91 154.535 172.821 155.071 172.822C155.911 172.831 156.728 173.09 157.419 173.568C158.11 174.045 158.642 174.718 158.948 175.5C159.253 176.282 159.318 177.137 159.134 177.957C158.949 178.776 158.524 179.521 157.913 180.097C157.023 180.803 155.924 181.194 154.788 181.207C153.652 181.221 152.543 180.856 151.637 180.171C150.694 179.322 150.223 177.995 150.223 176.19C150.223 173.752 150.623 171.98 151.422 170.875C151.736 170.439 152.138 170.072 152.6 169.798C152.963 169.56 153.354 169.37 153.765 169.232C154.159 169.116 154.559 169.021 154.964 168.949C155.406 168.877 155.833 168.734 156.229 168.525C156.498 168.376 156.706 168.138 156.815 167.851ZM153.186 178.628C153.496 178.946 153.895 179.164 154.33 179.253C154.765 179.342 155.217 179.298 155.627 179.128C156.038 178.958 156.387 178.668 156.631 178.297C156.876 177.926 157.003 177.49 156.997 177.046C157.006 176.75 156.956 176.457 156.85 176.181C156.743 175.906 156.583 175.655 156.378 175.442C155.944 175.036 155.373 174.809 154.778 174.809C154.184 174.809 153.612 175.036 153.179 175.442C152.779 175.876 152.557 176.445 152.557 177.035C152.557 177.626 152.779 178.194 153.179 178.628H153.186Z" fill="white"/>
    <path d="M167.973 173.072V180.946H165.758V174.965H163.61V177.854C163.663 178.697 163.399 179.528 162.869 180.185C162.502 180.529 162.057 180.778 161.573 180.911C161.088 181.043 160.578 181.055 160.088 180.946V179.053C160.201 179.077 160.316 179.091 160.431 179.094C160.602 179.105 160.773 179.076 160.931 179.009C161.089 178.942 161.229 178.84 161.34 178.71C161.543 178.416 161.639 178.062 161.61 177.706V173.072H167.973Z" fill="white"/>
    <path d="M175.777 178.419L177.797 178.742C177.711 178.979 177.598 179.205 177.461 179.416C177.258 179.694 177.033 179.956 176.787 180.197C176.457 180.534 176.054 180.79 175.609 180.945C175.061 181.142 174.481 181.238 173.899 181.228C173.347 181.251 172.797 181.164 172.279 180.974C171.762 180.783 171.287 180.492 170.882 180.116C170.47 179.721 170.147 179.243 169.933 178.713C169.72 178.184 169.621 177.615 169.643 177.045C169.623 176.475 169.719 175.907 169.925 175.376C170.131 174.845 170.443 174.36 170.842 173.953C171.235 173.578 171.701 173.286 172.21 173.095C172.719 172.904 173.261 172.818 173.804 172.842C174.382 172.807 174.96 172.906 175.494 173.13C176.027 173.354 176.502 173.698 176.882 174.135C177.554 175.02 177.888 176.117 177.824 177.227V177.409H171.932C171.91 177.888 172.045 178.361 172.316 178.756C172.497 179.003 172.736 179.2 173.012 179.331C173.289 179.462 173.593 179.521 173.899 179.504C174.282 179.52 174.663 179.427 174.996 179.235C175.329 179.043 175.6 178.76 175.777 178.419ZM172.047 175.96H175.777C175.713 175.497 175.472 175.077 175.104 174.788C174.759 174.521 174.335 174.376 173.899 174.378C173.465 174.377 173.045 174.524 172.707 174.795C172.347 175.086 172.111 175.502 172.047 175.96Z" fill="white"/>
    <path d="M179.575 173.071H181.791V177.928L185.427 173.071H187.649V180.945H185.427V176.089L181.791 180.945H179.575V173.071ZM185.137 169.124L186.592 169.798C186.494 170.107 186.336 170.393 186.127 170.641C185.918 170.888 185.661 171.092 185.373 171.239C184.828 171.522 184.223 171.67 183.609 171.67C182.995 171.67 182.389 171.522 181.844 171.239C181.557 171.091 181.302 170.888 181.094 170.64C180.886 170.393 180.729 170.106 180.632 169.798L182.087 169.124C182.155 169.455 182.345 169.748 182.619 169.946C182.904 170.161 183.252 170.275 183.609 170.269C183.952 170.274 184.288 170.173 184.572 169.979C184.866 169.78 185.069 169.473 185.137 169.124Z" fill="white"/>
</svg>
