<svg width="9" height="13" viewBox="0 0 9 13" fill="none" xmlns="http://www.w3.org/2000/svg">
    <path d="M4.5 0C3.30652 0 2.16193 0.487466 1.31802 1.35516C0.474107 2.22285 0 3.3997 0 4.6268C0 7.18184 4.5 13 4.5 13C4.5 13 9 7.18184 9 4.6268C9 4.0192 8.8836 3.41755 8.65746 2.8562C8.43131 2.29485 8.09984 1.7848 7.68198 1.35516C7.26412 0.925521 6.76804 0.584712 6.22208 0.352194C5.67611 0.119675 5.09095 0 4.5 0ZM4.5 7.15937C4.01355 7.15937 3.53803 7.01105 3.13357 6.73318C2.7291 6.45531 2.41386 6.06037 2.22771 5.59829C2.04155 5.1362 1.99284 4.62774 2.08774 4.1372C2.18264 3.64666 2.41689 3.19606 2.76086 2.8424C3.10483 2.48874 3.54307 2.2479 4.02017 2.15032C4.49727 2.05275 4.9918 2.10283 5.44121 2.29423C5.89063 2.48563 6.27476 2.80975 6.54501 3.22561C6.81527 3.64147 6.95951 4.1304 6.95951 4.63055C6.95951 5.30123 6.70039 5.94445 6.23914 6.41869C5.77789 6.89294 5.1523 7.15937 4.5 7.15937Z" fill="#EC6E00"/>
</svg>
