<svg width="76" height="39" viewBox="0 0 76 39" fill="none" xmlns="http://www.w3.org/2000/svg">
    <path d="M49.3661 30.3414L49.8961 28.0803L65.1401 14.511L51.9232 29.7239L49.3661 30.3414Z" fill="#EC6E00"/>
    <path d="M38.0014 8.09565e-06C30.1594 -0.00514531 22.5134 2.45018 16.1406 7.02007H15.8756L9.64207 7.09901V12.8955C3.41335 19.9625 -0.0160108 29.0633 5.62015e-05 38.4835V38.9599H76V38.4835C76 17.2598 58.9545 8.09565e-06 38.0014 8.09565e-06ZM14.8662 10.0395C14.9586 10.1021 15.0345 10.186 15.0875 10.2842C15.1405 10.3824 15.1691 10.4919 15.1707 10.6034V26.8933C15.1625 27.0003 15.1288 27.1037 15.0724 27.195C15.016 27.2862 14.9385 27.3626 14.8465 27.4177C14.638 27.58 14.3805 27.6665 14.1163 27.663H13.2451C13.2451 27.663 13.2254 27.0991 13.2254 26.8933V10.5978C13.5073 10.3328 13.8175 10.0706 14.1191 9.81118C14.3866 9.80235 14.6494 9.88268 14.8662 10.0395ZM0.9558 38.0014C1.04914 29.3558 4.11649 21.006 9.64207 14.3559V37.6913L13.2254 34.9368V30.2455C14.0712 30.2455 15.4583 30.268 15.9601 30.268C16.9384 30.268 18.1451 29.9438 18.4975 28.5765C18.534 28.3909 18.5464 28.2013 18.5342 28.0126V10.3581C18.5342 8.81597 18.5342 8.10268 17.8998 7.51345C17.7778 7.40276 17.6388 7.31233 17.4882 7.24562C23.5424 3.13824 30.6911 0.9449 38.0071 0.950113C58.2779 0.950113 74.799 17.5276 75.0527 38.0014H0.9558Z" fill="white"/>
    <path d="M17.1893 33.6907C16.9394 33.6501 16.6958 33.5772 16.4648 33.4736C16.4418 33.4579 16.4229 33.4369 16.4096 33.4124C16.3964 33.3879 16.3892 33.3605 16.3887 33.3327C16.3884 33.3011 16.3963 33.2699 16.4116 33.2422C16.4269 33.2146 16.4491 33.1913 16.4761 33.1748C16.6116 33.1081 16.7624 33.0789 16.913 33.0902C17.0442 33.0824 17.1747 33.1138 17.288 33.1804C17.3764 33.244 17.4394 33.3369 17.4656 33.4426L18.193 33.3073C18.1341 33.0725 17.9918 32.8671 17.7927 32.7293C17.5193 32.5808 17.2093 32.5133 16.899 32.5348C16.5678 32.5073 16.2377 32.5993 15.9686 32.7942C15.873 32.8709 15.7961 32.9684 15.7438 33.0793C15.6915 33.1902 15.6652 33.3116 15.6669 33.4342C15.6628 33.5647 15.6925 33.6941 15.7533 33.8098C15.8141 33.9254 15.9038 34.0233 16.0137 34.0939C16.3881 34.2782 16.7883 34.4046 17.2006 34.4689C17.2935 34.4831 17.3821 34.5177 17.46 34.5703C17.4964 34.6103 17.5156 34.6629 17.5136 34.717C17.5147 34.7573 17.506 34.7974 17.4884 34.8337C17.4707 34.87 17.4445 34.9015 17.4121 34.9256C17.2767 35.008 17.1191 35.0464 16.961 35.0355C16.8106 35.0453 16.6615 35.0035 16.5381 34.9171C16.4307 34.8311 16.3585 34.7087 16.3351 34.5732L15.5598 34.6916C15.6235 34.9604 15.7854 35.1957 16.0137 35.3513C16.2977 35.526 16.628 35.6105 16.961 35.5938C17.315 35.6229 17.6675 35.5227 17.9534 35.3118C18.0584 35.2298 18.1434 35.1251 18.202 35.0054C18.2606 34.8857 18.2913 34.7543 18.2917 34.6211C18.2954 34.515 18.2756 34.4095 18.2337 34.312C18.1917 34.2145 18.1288 34.1275 18.0492 34.0572C17.7929 33.8735 17.4994 33.7484 17.1893 33.6907Z" fill="white"/>
    <path d="M21.906 32.969C21.7774 32.825 21.6183 32.7116 21.4403 32.637C21.2623 32.5623 21.0698 32.5284 20.877 32.5376C20.6965 32.5323 20.517 32.5663 20.3509 32.6374C20.1849 32.7085 20.0364 32.8149 19.9156 32.9492C19.6496 33.2629 19.5134 33.6663 19.535 34.0769C19.5192 34.4339 19.618 34.7866 19.8169 35.0834C19.9496 35.2527 20.1218 35.3868 20.3185 35.4738C20.5151 35.5609 20.7302 35.5982 20.9447 35.5825C21.2296 35.602 21.5134 35.532 21.7566 35.3823C21.9778 35.2228 22.1419 34.9965 22.2246 34.7367L21.455 34.607C21.4268 34.7311 21.3608 34.8434 21.2661 34.9284C21.179 34.9954 21.0714 35.0303 20.9616 35.0271C20.8767 35.0266 20.7928 35.0077 20.7159 34.9717C20.639 34.9357 20.5708 34.8834 20.5161 34.8184C20.3877 34.6702 20.3202 34.4788 20.3272 34.2828H22.2669C22.3123 33.8153 22.1839 33.3476 21.906 32.969ZM20.3413 33.8148C20.3297 33.6327 20.3882 33.4531 20.5049 33.3129C20.5568 33.2537 20.621 33.2066 20.6931 33.175C20.7652 33.1433 20.8434 33.1278 20.9221 33.1297C20.9979 33.1281 21.0732 33.1429 21.1428 33.1731C21.2123 33.2032 21.2746 33.248 21.3253 33.3045C21.4445 33.447 21.5059 33.6291 21.4972 33.8148H20.3413Z" fill="white"/>
    <path d="M24.7028 32.6308C24.5664 32.7356 24.454 32.8682 24.3729 33.0199V32.6026H23.654V35.5262H24.4265V34.624C24.4136 34.2956 24.4354 33.9668 24.4914 33.6429C24.5152 33.5197 24.5774 33.4072 24.669 33.3215C24.7488 33.258 24.8491 33.2259 24.9509 33.2313C25.0817 33.2383 25.2078 33.2823 25.3146 33.3582L25.5542 32.6815C25.4002 32.5886 25.2239 32.5389 25.0439 32.5378C24.9236 32.535 24.8051 32.5673 24.7028 32.6308Z" fill="white"/>
    <path d="M27.9817 34.0968C27.9506 34.1785 27.9253 34.2603 27.8971 34.342C27.8689 34.4238 27.8604 34.4661 27.8181 34.593L27.6603 34.0968L27.0964 32.6025H26.2957L27.4742 35.5262H28.1706L29.3321 32.6025H28.5371L27.9817 34.0968Z" fill="white"/>
    <path d="M31.3676 31.4918H30.5951V32.2079H31.3676V31.4918Z" fill="white"/>
    <path d="M31.3676 32.6025H30.5951V35.5262H31.3676V32.6025Z" fill="white"/>
    <path d="M34.5816 34.8381C34.4809 34.9228 34.3523 34.9671 34.2208 34.9622C34.1314 34.9662 34.0423 34.9488 33.9609 34.9116C33.8795 34.8743 33.8082 34.8182 33.7528 34.7479C33.615 34.5286 33.5536 34.2699 33.578 34.0121C33.556 33.7761 33.6168 33.5399 33.75 33.3439C33.8062 33.2779 33.8769 33.2257 33.9566 33.1915C34.0364 33.1572 34.1229 33.1419 34.2095 33.1465C34.3382 33.1396 34.4648 33.1808 34.5647 33.2621C34.6616 33.3527 34.7235 33.4744 34.7395 33.6061L35.5036 33.4679C35.4335 33.1904 35.274 32.9437 35.0497 32.7659C34.7991 32.6019 34.5029 32.5219 34.2039 32.5376C34.0122 32.5275 33.8207 32.5583 33.6418 32.6278C33.463 32.6973 33.3009 32.804 33.1664 32.9407C32.9176 33.264 32.7828 33.6605 32.7828 34.0684C32.7828 34.4764 32.9176 34.8729 33.1664 35.1962C33.2983 35.3327 33.4578 35.4395 33.6343 35.5095C33.8108 35.5795 34.0001 35.6111 34.1898 35.6022C34.5113 35.6182 34.8287 35.5237 35.0891 35.3343C35.3269 35.1314 35.4872 34.8525 35.543 34.5449L34.7846 34.4152C34.7637 34.5742 34.6926 34.7224 34.5816 34.8381Z" fill="white"/>
    <path d="M39.022 32.969C38.8934 32.825 38.7343 32.7116 38.5563 32.637C38.3783 32.5623 38.1858 32.5284 37.993 32.5376C37.8125 32.5327 37.6331 32.5669 37.4671 32.638C37.3012 32.709 37.1526 32.8152 37.0316 32.9492C36.7664 33.2631 36.6312 33.6666 36.6538 34.0769C36.638 34.4339 36.7368 34.7866 36.9358 35.0834C37.0684 35.2527 37.2406 35.3868 37.4373 35.4738C37.6339 35.5609 37.849 35.5982 38.0635 35.5825C38.347 35.5931 38.6268 35.5153 38.8642 35.3597C39.087 35.2013 39.2522 34.9747 39.335 34.7141L38.5625 34.5844C38.5341 34.7078 38.4693 34.8198 38.3764 34.9058C38.2883 34.9728 38.1798 35.0077 38.0691 35.0045C37.9855 35.0058 37.9026 34.9894 37.8259 34.9563C37.7491 34.9233 37.6802 34.8744 37.6237 34.8128C37.4974 34.6634 37.4311 34.4726 37.4376 34.2771H39.3745C39.4222 33.8125 39.2967 33.3467 39.022 32.969ZM37.4601 33.8148C37.4477 33.6331 37.5052 33.4536 37.6208 33.3129C37.6733 33.2537 37.7381 33.2066 37.8107 33.1749C37.8832 33.1433 37.9618 33.1278 38.0409 33.1297C38.1163 33.1281 38.1912 33.143 38.2603 33.1731C38.3294 33.2033 38.3911 33.2481 38.4413 33.3045C38.5615 33.4466 38.6239 33.6287 38.6161 33.8148H37.4601Z" fill="white"/>
    <path d="M48.0692 32.4587C48.0692 31.8666 47.697 31.5283 46.8512 31.5283H46.4171H46.3973H46.3297C46.1267 31.5283 45.9068 31.5509 45.732 31.565C45.7044 31.5684 45.6785 31.5798 45.6575 31.5979C45.6364 31.6159 45.6211 31.6398 45.6136 31.6665L45.0638 35.3823C45.0638 35.4359 45.0638 35.4415 45.1202 35.4415H45.7771C45.7913 35.4431 45.8057 35.4417 45.8194 35.4373C45.833 35.4329 45.8456 35.4257 45.8563 35.4161C45.8669 35.4065 45.8754 35.3948 45.8812 35.3816C45.887 35.3685 45.8899 35.3544 45.8899 35.34L46.0787 33.843H46.3381C46.3381 33.843 46.496 33.8261 46.5355 33.8571C46.8738 34.108 46.8907 35.4105 46.8907 35.4105C46.8907 35.4105 46.9302 35.4415 46.9753 35.4415H47.6857C47.7534 35.4415 47.8267 35.3767 47.8042 35.3231C47.8042 35.3231 47.5927 34.0798 47.3333 33.6851C47.3205 33.6566 47.3092 33.6274 47.2995 33.5977C47.8775 33.3552 48.0635 33.0423 48.0692 32.4587ZM46.5157 33.3242C46.386 33.3242 46.2902 33.3242 46.2113 33.3242L46.3804 32.1965H46.7075C46.9894 32.1965 47.2093 32.2698 47.2206 32.6363C47.2239 32.729 47.2078 32.8213 47.1733 32.9074C47.1388 32.9935 47.0867 33.0714 47.0204 33.1362C46.954 33.201 46.8748 33.2512 46.7879 33.2835C46.701 33.3159 46.6083 33.3298 46.5157 33.3242Z" fill="white"/>
    <path d="M52.9748 31.582H52.3179C52.2615 31.582 52.2558 31.582 52.2446 31.6412L51.895 34.032C51.8928 34.1405 51.8691 34.2475 51.8253 34.3467C51.7815 34.446 51.7184 34.5356 51.6398 34.6103C51.5611 34.685 51.4684 34.7434 51.367 34.7821C51.2657 34.8207 51.1576 34.8389 51.0492 34.8355C50.6376 34.8355 50.4515 34.5818 50.5248 34.0743L50.88 31.6835C50.8816 31.6708 50.8805 31.6578 50.8767 31.6455C50.8729 31.6332 50.8665 31.6219 50.8579 31.6123C50.8494 31.6027 50.8389 31.595 50.8271 31.5898C50.8154 31.5846 50.8027 31.5819 50.7898 31.582H50.1301C50.0737 31.582 50.0737 31.582 50.0568 31.6412L49.7128 34.032C49.5775 34.9596 49.9948 35.5121 51.0266 35.5121C52.0077 35.5121 52.566 35.0018 52.7013 34.0743L53.0565 31.6835C53.0582 31.6594 53.0507 31.6356 53.0355 31.6168C53.0204 31.5979 52.9987 31.5855 52.9748 31.582Z" fill="white"/>
    <path d="M57.074 31.8722C56.8071 31.6408 56.463 31.5181 56.1098 31.5283C55.9336 31.5142 55.7564 31.5376 55.5899 31.5971C55.4234 31.6566 55.2714 31.7507 55.1441 31.8733C55.0167 31.9959 54.9168 32.1442 54.8509 32.3082C54.7851 32.4723 54.7549 32.6485 54.7622 32.8252C54.7622 33.4088 55.1908 33.5215 55.6588 33.7724C55.8617 33.8655 56.0817 33.9557 56.0817 34.2264C56.0787 34.3889 56.012 34.5438 55.896 34.6577C55.78 34.7716 55.624 34.8354 55.4614 34.8353C55.1947 34.8315 54.9383 34.7314 54.7397 34.5534C54.7297 34.5433 54.7178 34.5353 54.7048 34.5299C54.6917 34.5245 54.6777 34.5216 54.6635 34.5216C54.6494 34.5216 54.6354 34.5245 54.6223 34.5299C54.6092 34.5353 54.5974 34.5433 54.5874 34.5534L54.3055 34.9143C54.2906 34.9358 54.2841 34.962 54.2872 34.988C54.2904 35.0139 54.3029 35.0378 54.3224 35.0552C54.6271 35.3424 55.0314 35.5001 55.4501 35.495C56.5384 35.495 56.9218 34.7423 56.9387 34.1023C56.9556 33.4623 56.544 33.3411 56.0704 33.0986C55.8392 32.9971 55.608 32.8787 55.6136 32.6814C55.6271 32.5543 55.6857 32.4363 55.7788 32.3488C55.872 32.2614 55.9935 32.2103 56.1211 32.2049C56.2974 32.2037 56.4688 32.2634 56.606 32.3741C56.6737 32.4107 56.747 32.4107 56.7696 32.3741L57.1107 31.9991C57.1417 31.9653 57.1361 31.9202 57.074 31.8722Z" fill="white"/>
    <path d="M61.2973 31.8722C61.0304 31.6408 60.6863 31.5181 60.3331 31.5283C60.1569 31.5142 59.9797 31.5376 59.8132 31.5971C59.6467 31.6566 59.4947 31.7507 59.3674 31.8733C59.24 31.9959 59.1401 32.1442 59.0742 32.3082C59.0084 32.4723 58.9782 32.6485 58.9855 32.8252C58.9855 33.4088 59.4141 33.5215 59.8821 33.7724C60.085 33.8655 60.305 33.9557 60.305 34.2264C60.302 34.3889 60.2353 34.5438 60.1193 34.6577C60.0033 34.7716 59.8473 34.8354 59.6847 34.8353C59.418 34.8315 59.1616 34.7314 58.963 34.5534C58.953 34.5433 58.9411 34.5353 58.9281 34.5299C58.915 34.5245 58.901 34.5216 58.8868 34.5216C58.8727 34.5216 58.8587 34.5245 58.8456 34.5299C58.8325 34.5353 58.8207 34.5433 58.8107 34.5534L58.5288 34.9143C58.5139 34.9358 58.5074 34.962 58.5105 34.988C58.5137 35.0139 58.5262 35.0378 58.5457 35.0552C58.8504 35.3424 59.2547 35.5001 59.6734 35.495C60.7617 35.495 61.1451 34.7423 61.162 34.1023C61.1789 33.4623 60.7673 33.3411 60.2937 33.0986C60.0625 32.9971 59.8313 32.8787 59.8369 32.6814C59.8504 32.5543 59.909 32.4363 60.0021 32.3488C60.0953 32.2614 60.2168 32.2103 60.3444 32.2049C60.5207 32.2037 60.6921 32.2634 60.8293 32.3741C60.897 32.4107 60.9703 32.4107 60.9929 32.3741L61.3396 31.9991C61.365 31.9653 61.3594 31.9202 61.2973 31.8722Z" fill="white"/>
    <path d="M64.111 31.582H63.457C63.4006 31.582 63.3893 31.582 63.3837 31.6412L62.6788 35.3825C62.6788 35.436 62.6957 35.4529 62.7521 35.4529H63.4062C63.4199 35.4541 63.4337 35.4525 63.4468 35.4483C63.4599 35.4441 63.4721 35.4374 63.4825 35.4285C63.493 35.4196 63.5016 35.4087 63.5079 35.3964C63.5141 35.3842 63.5179 35.3708 63.519 35.3571L64.2069 31.6779C64.2069 31.6525 64.1968 31.6281 64.1788 31.6101C64.1608 31.5921 64.1365 31.582 64.111 31.582Z" fill="white"/>
    <path d="M68.058 31.6694C68.0568 31.6471 68.0475 31.626 68.032 31.61C68.0165 31.594 67.9957 31.584 67.9734 31.582H67.2602C67.2094 31.582 67.1869 31.582 67.1643 31.6243L65.2472 35.3458C65.219 35.3994 65.2697 35.4586 65.3318 35.4586H66.0084C66.0343 35.4598 66.06 35.4531 66.0821 35.4396C66.1042 35.426 66.1217 35.4061 66.1324 35.3825L66.6343 34.3309H67.6718L67.824 35.3825C67.8409 35.4247 67.8691 35.467 67.9199 35.467H68.5965C68.6585 35.467 68.6811 35.4304 68.6585 35.3486L68.058 31.6694ZM66.8485 33.736L67.5111 32.5237L67.6295 33.736H66.8485Z" fill="white"/>
    <path d="M70.4798 34.4971H69.665V35.3344H70.4798V34.4971Z" fill="white"/>
    <path d="M40.4768 27.6405C40.3994 27.6301 40.323 27.6132 40.2485 27.5897C40.0242 27.5066 39.8284 27.3608 39.6846 27.1696C39.4873 26.877 39.3949 26.5263 39.4224 26.1744V9.47005H41.9795V7.03981H39.4224V1.44067L35.9152 4.088V7.03981H34.0234V9.47005H35.9152V26.7467C35.9152 27.8481 36.137 28.63 36.5805 29.0924C36.9763 29.524 37.4868 29.834 38.0522 29.9861C38.3371 30.0729 38.6316 30.124 38.929 30.1384C39.2091 30.1496 39.4544 30.1553 39.6649 30.1553C39.6694 30.1548 39.674 30.1554 39.6783 30.157C39.6826 30.1585 39.6865 30.161 39.6898 30.1642C39.693 30.1674 39.6955 30.1714 39.697 30.1757C39.6986 30.18 39.6991 30.1846 39.6987 30.1891H41.9767V27.6517H40.7165C40.6364 27.6537 40.5563 27.6499 40.4768 27.6405Z" fill="white"/>
    <path d="M31.2661 8.83848C31.1246 8.35499 30.8442 7.92367 30.4598 7.59799C30.0407 7.21081 29.3058 7.01815 28.2551 7.02003H25.4697C25.3112 7.02047 25.1529 7.03178 24.996 7.05386C24.4104 7.11915 23.8567 7.35436 23.4031 7.7305C22.9238 8.12144 22.6842 8.93058 22.6842 10.1579V14.3869C22.6842 14.7167 22.6842 15.0099 22.7011 15.2637C22.7134 15.5177 22.7667 15.7681 22.859 16.0051C22.9438 16.2073 23.0558 16.397 23.1917 16.569C23.3676 16.7989 23.5558 17.0191 23.7555 17.2287L26.9075 20.33C27.0209 20.4297 27.1273 20.5371 27.2261 20.6514L27.4544 20.9333C27.5903 21.1433 27.6966 21.3709 27.7702 21.6099C27.847 21.8956 27.8822 22.191 27.8745 22.4867V27.7391H27.5644C27.5644 27.7391 27.2543 27.7616 27.0005 27.7616C26.8958 27.7634 26.7918 27.7437 26.6949 27.704C26.5979 27.6643 26.5101 27.6052 26.4367 27.5305C26.3607 27.4518 26.3015 27.3585 26.2628 27.2562C26.224 27.1539 26.2064 27.0449 26.2111 26.9356V22.2274L22.7067 24.7478V26.9469C22.7067 27.1245 22.7067 27.3331 22.7237 27.5756C22.7361 27.8197 22.7653 28.0628 22.8111 28.3029C22.9705 28.7918 23.2634 29.2264 23.6568 29.5575C24.0797 29.9325 24.8015 30.1214 25.8305 30.1524L28.2467 30.1186C29.3744 30.1186 30.145 29.8874 30.5585 29.425C30.9639 28.995 31.2328 28.4544 31.331 27.8716C31.3535 27.6742 31.3705 27.4882 31.3817 27.3077C31.393 27.1273 31.4015 26.9553 31.4015 26.7777V22.2217C31.4015 21.6917 31.4015 21.2632 31.3648 20.9333C31.34 20.5974 31.2439 20.2706 31.0829 19.9747C30.9449 19.7252 30.7865 19.4876 30.6092 19.2643C30.3672 18.9634 30.1033 18.6807 29.8198 18.4185L27.4037 16.0728C27.1048 15.7692 26.8295 15.4431 26.5805 15.0973C26.3322 14.7448 26.2037 14.3218 26.214 13.8907V10.1917C26.2069 10.085 26.2255 9.97815 26.2682 9.88007C26.3109 9.78198 26.3764 9.69552 26.4592 9.62789C26.6077 9.50122 26.79 9.42084 26.9836 9.39671H27.0879C27.2962 9.39422 27.4977 9.47078 27.6518 9.61097C27.7312 9.68147 27.7943 9.76844 27.8367 9.86583C27.879 9.96321 27.8997 10.0687 27.8971 10.1748V14.4517L31.4015 11.5422V10.0592C31.4015 9.88444 31.4015 9.69273 31.3817 9.49538C31.3614 9.2736 31.3227 9.05389 31.2661 8.83848Z" fill="white"/>
    <path d="M51.3367 9.73792H50.8575V11.8665H51.3367V9.73792Z" fill="white"/>
    <path d="M48.0136 9.96297L47.538 10.0227L47.8033 12.1347L48.2789 12.0749L48.0136 9.96297Z" fill="white"/>
    <path d="M44.729 10.7734L44.2723 10.9191L44.9191 12.947L45.3758 12.8014L44.729 10.7734Z" fill="white"/>
    <path d="M41.6228 12.0591L41.1992 12.2833L42.1949 14.1647L42.6185 13.9405L41.6228 12.0591Z" fill="white"/>
    <path d="M63.2856 14.2204L61.9131 15.8474L62.2794 16.1564L63.6519 14.5295L63.2856 14.2204Z" fill="white"/>
    <path d="M60.5283 12.3418L59.4075 14.1515L59.815 14.4038L60.9357 12.5942L60.5283 12.3418Z" fill="white"/>
    <path d="M67.9505 19.1318L66.12 20.2386L66.3692 20.6508L68.1998 19.544L67.9505 19.1318Z" fill="white"/>
    <path d="M65.6501 16.599L64.039 17.9901L64.3523 18.3529L65.9633 16.9617L65.6501 16.599Z" fill="white"/>
    <path d="M69.1183 22.3715L67.1228 23.1124L67.2897 23.5617L69.2851 22.8208L69.1183 22.3715Z" fill="white"/>
    <path d="M70.3385 28.9025L68.2101 28.9266L68.2155 29.4059L70.344 29.3817L70.3385 28.9025Z" fill="white"/>
    <path d="M69.9742 25.6357L67.8645 25.9187L67.9282 26.3937L70.0379 26.1107L69.9742 25.6357Z" fill="white"/>
    <path d="M57.4775 10.8513L56.7642 12.8568L57.2158 13.0174L57.9291 11.0119L57.4775 10.8513Z" fill="white"/>
    <path d="M54.2235 10.0506L53.9063 12.1554L54.3802 12.2268L54.6974 10.122L54.2235 10.0506Z" fill="white"/>
</svg>
