<svg width="59" height="62" viewBox="0 0 59 62" fill="none" xmlns="http://www.w3.org/2000/svg">
    <path d="M57.2689 35.7572H44.6897C44.458 35.7573 44.2287 35.7112 44.0153 35.6217C43.8019 35.5321 43.6088 35.4009 43.4473 35.2359C43.2859 35.0708 43.1595 34.8753 43.0755 34.6608C42.9916 34.4463 42.9518 34.2173 42.9586 33.9873L43.1375 27.8843C43.1502 27.5177 43.0285 27.1589 42.795 26.8747C42.5616 26.5905 42.2322 26.4002 41.868 26.339L19.4182 22.3567C19.5242 22.6593 19.7076 22.9294 19.9504 23.1404C20.1932 23.3514 20.487 23.4961 20.803 23.5603C22.743 24.0498 30.444 27.0979 31.3165 27.4441C31.6378 27.5717 31.9132 27.7921 32.1072 28.0767C32.3012 28.3613 32.4048 28.6972 32.4048 29.0409V34.0377C32.4048 34.4938 32.2224 34.9311 31.8977 35.2536C31.5731 35.576 31.1328 35.7572 30.6737 35.7572H1.73109C1.27197 35.7572 0.831664 35.576 0.507023 35.2536C0.182381 34.9311 0 34.4938 0 34.0377V1.71948C0 1.26345 0.182381 0.82609 0.507023 0.503625C0.831664 0.181159 1.27197 0 1.73109 0H57.2689C57.728 0 58.1683 0.181159 58.493 0.503625C58.8176 0.82609 59 1.26345 59 1.71948V34.0377C59 34.4938 58.8176 34.9311 58.493 35.2536C58.1683 35.576 57.728 35.7572 57.2689 35.7572ZM46.4762 32.3182H55.5378V3.43896H3.46217V32.3182H28.9472V30.2079C26.1613 29.1143 21.222 27.2137 19.9548 26.8938C18.8132 26.6041 17.7928 25.9638 17.039 25.0644C16.2851 24.1649 15.8363 23.0521 15.7563 21.8844C15.6994 21.4534 15.7465 21.015 15.8938 20.6056C16.0411 20.1962 16.2843 19.8275 16.6034 19.5299C16.9263 19.2273 17.3158 19.0037 17.7409 18.8768C18.166 18.7498 18.615 18.723 19.0523 18.7985L42.4878 22.9539C43.6646 23.1682 44.7258 23.7927 45.4802 24.7151C46.2347 25.6375 46.6329 26.7971 46.6031 27.9851L46.4762 32.3182Z" fill="#19357F"/>
    <path d="M38.0135 22.0039C36.6087 22.0041 35.2354 21.5905 34.0673 20.8154C32.8992 20.0403 31.9887 18.9385 31.451 17.6493C30.9134 16.3602 30.7727 14.9416 31.0468 13.573C31.3209 12.2044 31.9974 10.9474 32.9909 9.96075C33.9843 8.97415 35.25 8.30234 36.6278 8.03031C38.0057 7.75828 39.4338 7.89824 40.7316 8.43249C42.0293 8.96675 43.1384 9.87129 43.9186 11.0317C44.6987 12.1921 45.1149 13.5563 45.1144 14.9517C45.1117 16.8214 44.3626 18.6138 43.0315 19.9357C41.7004 21.2577 39.8959 22.0015 38.0135 22.0039ZM38.0135 11.3351C37.2936 11.3348 36.5898 11.5467 35.9911 11.9437C35.3924 12.3408 34.9257 12.9054 34.65 13.5659C34.3743 14.2265 34.302 14.9534 34.4422 15.6548C34.5824 16.3562 34.9289 17.0005 35.4378 17.5063C35.9467 18.0121 36.5951 18.3566 37.3011 18.4964C38.0072 18.6361 38.7391 18.5647 39.4042 18.2913C40.0694 18.0178 40.6381 17.5546 41.0382 16.9602C41.4384 16.3657 41.6521 15.6668 41.6523 14.9517C41.6517 13.9931 41.2682 13.0739 40.586 12.3958C39.9038 11.7178 38.9786 11.3363 38.0135 11.3351ZM10.1592 53.5827C8.75472 53.5816 7.38208 53.1668 6.21486 52.3909C5.04764 51.615 4.13825 50.5127 3.60167 49.2234C3.06508 47.9341 2.9254 46.5158 3.20027 45.1477C3.47514 43.7796 4.15223 42.5231 5.14593 41.5372C6.13964 40.5513 7.40533 39.8801 8.78299 39.6087C10.1606 39.3372 11.5884 39.4776 12.8858 40.012C14.1831 40.5465 15.2918 41.451 16.0717 42.6113C16.8515 43.7716 17.2675 45.1355 17.2671 46.5306C17.2643 48.4015 16.5143 50.1948 15.1817 51.517C13.8491 52.8392 12.0428 53.5821 10.1592 53.5827ZM10.1592 42.9139C9.43962 42.9151 8.7365 43.128 8.1387 43.5259C7.54091 43.9239 7.07527 44.4889 6.80063 45.1495C6.52598 45.8102 6.45466 46.5369 6.59566 47.2379C6.73666 47.9388 7.08367 48.5825 7.59283 49.0876C8.10199 49.5927 8.75046 49.9366 9.4563 50.0757C10.1621 50.2149 10.8937 50.1431 11.5585 49.8695C12.2232 49.5958 12.7915 49.1326 13.1913 48.5383C13.5911 47.944 13.8047 47.2454 13.8049 46.5306C13.8021 45.5722 13.4168 44.654 12.7333 43.9775C12.0498 43.3009 11.1241 42.9213 10.1592 42.922V42.9139Z" fill="#19357F"/>
    <path d="M17.6847 62C17.2256 62 16.7853 61.8188 16.4607 61.4964C16.136 61.1739 15.9536 60.7366 15.9536 60.2805V59.8999C15.9536 58.8359 15.5281 57.8154 14.7706 57.0629C14.0131 56.3105 12.9857 55.8878 11.9144 55.8878H8.40495C7.33369 55.8878 6.3063 56.3105 5.5488 57.0629C4.79131 57.8154 4.36575 58.8359 4.36575 59.8999V60.2805C4.36575 60.7366 4.18337 61.1739 3.85873 61.4964C3.53408 61.8188 3.09378 62 2.63466 62C2.17555 62 1.73524 61.8188 1.4106 61.4964C1.08596 61.1739 0.903579 60.7366 0.903579 60.2805V59.8999C0.906022 57.9245 1.69713 56.0307 3.10338 54.6339C4.50963 53.2371 6.41621 52.4513 8.40495 52.4489H11.9144C13.9032 52.4513 15.8098 53.2371 17.216 54.6339C18.6223 56.0307 19.4134 57.9245 19.4158 59.8999V60.2805C19.4158 60.7366 19.2334 61.1739 18.9088 61.4964C18.5841 61.8188 18.1438 62 17.6847 62ZM29.5 53.5826C28.0952 53.5828 26.722 53.1693 25.5539 52.3942C24.3859 51.6192 23.4754 50.5175 22.9377 49.2285C22.4 47.9395 22.2591 46.5211 22.5331 45.1526C22.807 43.784 23.4833 42.527 24.4765 41.5403C25.4697 40.5536 26.7351 39.8816 28.1128 39.6093C29.4905 39.337 30.9186 39.4766 32.2164 40.0105C33.5142 40.5444 34.6234 41.4486 35.4039 42.6087C36.1843 43.7689 36.6009 45.1328 36.6009 46.5281C36.5987 48.3982 35.8499 50.1911 34.5188 51.5136C33.1876 52.8361 31.3827 53.5801 29.5 53.5826ZM29.5 42.9218C28.78 42.9216 28.0761 43.1334 27.4773 43.5306C26.8785 43.9278 26.4118 44.4925 26.1362 45.1532C25.8606 45.8138 25.7884 46.5409 25.9288 47.2423C26.0692 47.9438 26.4159 48.5881 26.925 49.0938C27.4341 49.5995 28.0828 49.9439 28.789 50.0834C29.4952 50.2228 30.2271 50.1511 30.8923 49.8773C31.5574 49.6036 32.1259 49.14 32.5257 48.5452C32.9256 47.9505 33.1389 47.2513 33.1387 46.5361C33.1375 45.5779 32.7537 44.6593 32.0716 43.9817C31.3895 43.3042 30.4646 42.923 29.5 42.9218Z" fill="#19357F"/>
    <path d="M37.0256 62C36.5665 62 36.1262 61.8188 35.8016 61.4964C35.4769 61.1739 35.2945 60.7366 35.2945 60.2805V59.8999C35.2945 58.8359 34.869 57.8154 34.1115 57.0629C33.354 56.3105 32.3266 55.8878 31.2553 55.8878H27.7447C26.6734 55.8878 25.646 56.3105 24.8886 57.0629C24.1311 57.8154 23.7055 58.8359 23.7055 59.8999V60.2805C23.7055 60.7366 23.5231 61.1739 23.1985 61.4964C22.8738 61.8188 22.4335 62 21.9744 62C21.5153 62 21.075 61.8188 20.7504 61.4964C20.4257 61.1739 20.2433 60.7366 20.2433 60.2805V59.8999C20.2458 57.9245 21.0369 56.0307 22.4431 54.6339C23.8494 53.2371 25.756 52.4513 27.7447 52.4489H31.2553C33.2441 52.4513 35.1507 53.2371 36.5569 54.6339C37.9632 56.0307 38.7543 57.9245 38.7567 59.8999V60.2805C38.7567 60.7366 38.5743 61.1739 38.2497 61.4964C37.925 61.8188 37.4847 62 37.0256 62ZM48.8409 53.5826C47.4361 53.5828 46.0629 53.1693 44.8948 52.3942C43.7268 51.6192 42.8163 50.5175 42.2786 49.2285C41.7409 47.9395 41.6001 46.5211 41.874 45.1526C42.1479 43.784 42.8242 42.527 43.8174 41.5403C44.8106 40.5536 46.076 39.8816 47.4537 39.6093C48.8314 39.337 50.2595 39.4766 51.5573 40.0105C52.8551 40.5444 53.9643 41.4486 54.7448 42.6087C55.5252 43.7689 55.9418 45.1328 55.9418 46.5281C55.9396 48.3982 55.1908 50.1911 53.8597 51.5136C52.5285 52.8361 50.7236 53.5801 48.8409 53.5826ZM48.8409 42.9138C48.1209 42.9135 47.417 43.1254 46.8182 43.5226C46.2194 43.9198 45.7527 44.4844 45.4771 45.1451C45.2015 45.8058 45.1293 46.5329 45.2697 47.2343C45.4101 47.9358 45.7568 48.5801 46.2659 49.0858C46.775 49.5915 47.4237 49.9359 48.1299 50.0753C48.8361 50.2148 49.568 50.1431 50.2332 49.8693C50.8983 49.5955 51.4668 49.1319 51.8666 48.5372C52.2665 47.9425 52.4798 47.2433 52.4796 46.5281C52.4759 45.5714 52.0911 44.655 51.4093 43.9792C50.7275 43.3035 49.804 42.9233 48.8409 42.9218V42.9138Z" fill="#19357F"/>
    <path d="M56.3653 61.9998C55.9062 61.9998 55.4659 61.8187 55.1413 61.4962C54.8166 61.1737 54.6343 60.7364 54.6343 60.2803V59.8998C54.6343 58.8357 54.2087 57.8152 53.4512 57.0628C52.6937 56.3103 51.6663 55.8876 50.5951 55.8876H47.0856C46.0143 55.8876 44.9869 56.3103 44.2294 57.0628C43.4719 57.8152 43.0464 58.8357 43.0464 59.8998V60.2803C43.0464 60.7364 42.864 61.1737 42.5394 61.4962C42.2147 61.8187 41.7744 61.9998 41.3153 61.9998C40.8562 61.9998 40.4159 61.8187 40.0912 61.4962C39.7666 61.1737 39.5842 60.7364 39.5842 60.2803V59.8998C39.5866 57.9244 40.3778 56.0306 41.784 54.6337C43.1903 53.2369 45.0968 52.4511 47.0856 52.4487H50.5951C52.5838 52.4511 54.4904 53.2369 55.8966 54.6337C57.3029 56.0306 58.094 57.9244 58.0964 59.8998V60.2803C58.0964 60.7364 57.9141 61.1737 57.5894 61.4962C57.2648 61.8187 56.8245 61.9998 56.3653 61.9998Z" fill="#19357F"/>
</svg>
