<svg width="50" height="51" viewBox="0 0 50 51" fill="none" xmlns="http://www.w3.org/2000/svg">
    <path d="M25.0127 26.3435C27.6119 26.3435 30.1528 25.571 32.3139 24.1236C34.4751 22.6763 36.1595 20.6192 37.1542 18.2123C38.1489 15.8055 38.4091 13.1571 37.902 10.6021C37.395 8.047 36.1433 5.70002 34.3054 3.85792C32.4675 2.01582 30.1258 0.761332 27.5766 0.253097C25.0273 -0.255137 22.3849 0.00570638 19.9835 1.00264C17.5822 1.99958 15.5297 3.68784 14.0857 5.85392C12.6416 8.02 11.8709 10.5666 11.8709 13.1717C11.8709 16.6651 13.2555 20.0154 15.72 22.4856C16.9404 23.7087 18.3891 24.6789 19.9835 25.3408C21.578 26.0028 23.2869 26.3435 25.0127 26.3435ZM25.0127 3.41396C26.9443 3.41396 28.8326 3.98839 30.4383 5.06452C32.044 6.14065 33.2951 7.67009 34.0332 9.45924C34.7712 11.2484 34.963 13.2168 34.5843 15.1152C34.2056 17.0137 33.2734 18.7568 31.9058 20.124C30.5381 21.4912 28.7965 22.421 26.9014 22.7956C25.0062 23.1702 23.0428 22.9728 21.2597 22.2284C19.4765 21.4841 17.9538 20.2262 16.8843 18.614C15.8148 17.0018 15.2466 15.1078 15.2517 13.1717C15.2584 10.5815 16.2897 8.0996 18.1196 6.27039C19.9494 4.44118 22.4283 3.41395 25.0127 3.41396ZM31.4692 28.8912H18.5308C13.6182 28.8979 8.9087 30.8569 5.43496 34.3385C1.96123 37.8202 0.00672499 42.5403 0 47.4641V49.273C0 49.7257 0.179433 50.1599 0.498827 50.48C0.81822 50.8001 1.25141 50.98 1.7031 50.98H24.301C24.4694 51.0067 24.6409 51.0067 24.8094 50.98C24.9779 51.0047 25.1492 51.0047 25.3177 50.98H48.1952C48.4273 50.9939 48.6597 50.96 48.8782 50.8805C49.0967 50.801 49.2967 50.6774 49.4658 50.5175C49.6349 50.3576 49.7695 50.1647 49.8614 49.9507C49.9532 49.7366 50.0004 49.506 50 49.273V47.4641C49.9933 42.5403 48.0388 37.8202 44.565 34.3385C41.0913 30.8569 36.3818 28.8979 31.4692 28.8912ZM25.9024 32.2797L27.9868 42.8273L24.8094 46.7253L21.6319 42.8527L23.6909 32.3052L25.9024 32.2797ZM3.4062 47.566C3.40606 43.5338 4.99547 39.6648 7.82828 36.8017C10.6611 33.9386 14.5078 32.3133 18.5308 32.2797H20.2339L18.1495 42.9546C18.0973 43.1999 18.1022 43.4539 18.164 43.697C18.2257 43.94 18.3425 44.1655 18.5053 44.3559L21.0473 47.566H3.25369H3.4062ZM46.6192 47.566H28.4698L31.0117 44.3559C31.1697 44.1627 31.2835 43.937 31.345 43.6949C31.4065 43.4528 31.4142 43.2001 31.3676 42.9546L29.2578 32.2797H31.3676C35.4126 32.2797 39.2919 33.8902 42.1521 36.7569C45.0124 39.6237 46.6192 43.5118 46.6192 47.566Z" fill="#19357F"/>
</svg>
