<svg width="46" height="49" viewBox="0 0 46 49" fill="none" xmlns="http://www.w3.org/2000/svg">
    <path d="M32.6366 7.40158C33.2235 7.7378 33.9184 7.82617 34.5697 7.64741C35.2209 7.46864 35.7757 7.03725 36.1129 6.44737C36.3919 5.95055 36.8265 5.56122 37.3484 5.34043C37.8704 5.11964 38.4502 5.07988 38.997 5.22738C39.5437 5.37489 40.0265 5.70131 40.3696 6.15546C40.7127 6.60962 40.8967 7.16582 40.8927 7.73684C40.8927 8.42082 40.6234 9.07678 40.1441 9.56043C39.6647 10.0441 39.0146 10.3158 38.3367 10.3158C37.6587 10.3158 37.0086 10.5875 36.5292 11.0711C36.0499 11.5548 35.7806 12.2108 35.7806 12.8947C35.7806 13.5787 36.0499 14.2347 36.5292 14.7183C37.0086 15.202 37.6587 15.4737 38.3367 15.4737C39.6825 15.4728 41.0044 15.1146 42.1696 14.435C43.3348 13.7554 44.3021 12.7783 44.9745 11.602C45.6469 10.4257 46.0005 9.09163 46 7.73374C45.9995 6.37585 45.6447 5.04202 44.9714 3.86627C44.2981 2.69052 43.33 1.71427 42.1643 1.03561C40.9986 0.356948 39.6764 -0.00021739 38.3305 9.92676e-08C36.9847 0.000217589 35.6626 0.357811 34.4971 1.03685C33.3316 1.71589 32.3638 2.69245 31.6908 3.86842C31.5218 4.16276 31.4122 4.48794 31.3683 4.82521C31.3244 5.16248 31.347 5.50518 31.4349 5.83359C31.5228 6.16199 31.6743 6.4696 31.8805 6.73871C32.0867 7.00781 32.3437 7.23309 32.6366 7.40158ZM43.6278 25.7895C42.9568 25.7016 42.2787 25.8857 41.7421 26.3015C41.2054 26.7172 40.854 27.3307 40.7649 28.0074C40.2285 32.3791 38.1264 36.4021 34.8543 39.3186C31.5823 42.2352 27.3662 43.844 23.0001 43.8421H8.71162L10.3731 42.1658C10.8491 41.6826 11.1164 41.0289 11.1164 40.3476C11.1164 39.6663 10.8491 39.0127 10.3731 38.5295C7.88076 36.005 6.18464 32.7928 5.49835 29.2975C4.81206 25.8023 5.1663 22.1803 6.51645 18.8878C7.8666 15.5953 10.1523 12.7795 13.0856 10.7952C16.0189 8.81087 19.4686 7.74674 23.0001 7.73684C23.6781 7.73684 24.3282 7.46513 24.8076 6.98148C25.2869 6.49784 25.5562 5.84187 25.5562 5.15789C25.5562 4.47391 25.2869 3.81795 24.8076 3.3343C24.3282 2.85066 23.6781 2.57895 23.0001 2.57895C18.6784 2.59714 14.4491 3.84324 10.7969 6.1745C7.1446 8.50576 4.21708 11.8279 2.34968 15.7603C0.482288 19.6926 -0.249448 24.0762 0.238309 28.4088C0.726066 32.7414 2.41359 36.8477 5.10754 40.2574L0.736629 44.59C0.381953 44.9527 0.14169 45.4132 0.0461587 45.9135C-0.0493728 46.4138 0.00410737 46.9314 0.199851 47.4011C0.391609 47.872 0.717249 48.2752 1.13573 48.5597C1.55422 48.8443 2.04681 48.9975 2.55145 49H23.0001C28.6017 49.0008 34.011 46.9394 38.2135 43.2027C42.4159 39.466 45.1227 34.3106 45.826 28.7037C45.8727 28.3665 45.8529 28.0233 45.7675 27.6939C45.6821 27.3645 45.5329 27.0555 45.3286 26.7846C45.1242 26.5136 44.8687 26.2862 44.5768 26.1154C44.2849 25.9446 43.9623 25.8339 43.6278 25.7895ZM39.308 18.2332C38.8426 18.0254 38.3264 17.9626 37.8254 18.0526L37.3654 18.2074L36.9053 18.4395L36.5218 18.7747C36.2919 19.0124 36.1097 19.2926 35.9851 19.6C35.8339 19.9217 35.7637 20.276 35.7806 20.6316C35.7731 20.9755 35.834 21.3175 35.9595 21.6374C36.0917 21.9469 36.2827 22.2273 36.5218 22.4626C36.7607 22.7016 37.0439 22.8907 37.3554 23.0191C37.6668 23.1474 38.0003 23.2125 38.3367 23.2105C39.0146 23.2105 39.6647 22.9388 40.1441 22.4552C40.6234 21.9715 40.8927 21.3156 40.8927 20.6316C40.9014 20.2933 40.8314 19.9576 40.6883 19.6516C40.4136 19.0319 39.9222 18.5361 39.308 18.2589V18.2332Z" fill="#19357F"/>
</svg>
