<svg width="46" height="46" viewBox="0 0 46 46" fill="none" xmlns="http://www.w3.org/2000/svg">
    <path d="M23.0809 22.9268C22.6236 22.9268 22.1766 23.0622 21.7964 23.3159C21.4161 23.5696 21.1198 23.9303 20.9448 24.3522C20.7698 24.7741 20.724 25.2384 20.8132 25.6863C20.9024 26.1342 21.1226 26.5457 21.446 26.8686C21.7693 27.1915 22.1813 27.4115 22.6298 27.5006C23.0784 27.5897 23.5433 27.5439 23.9657 27.3692C24.3882 27.1944 24.7494 26.8984 25.0034 26.5187C25.2575 26.139 25.3931 25.6925 25.3931 25.2358C25.3931 24.6234 25.1495 24.0361 24.7159 23.6031C24.2823 23.17 23.6941 22.9268 23.0809 22.9268ZM45.532 17.4773C44.279 12.4845 41.3915 8.05285 37.328 4.88634C33.2646 1.71983 28.2582 0 23.104 0C17.9499 0 12.9435 1.71983 8.88007 4.88634C4.81662 8.05285 1.92908 12.4845 0.676086 17.4773C-0.225362 21.0545 -0.225362 24.799 0.676086 28.3762C1.67332 32.4703 3.77328 36.2139 6.7485 39.2015C9.72372 42.189 13.4608 44.3066 17.5549 45.3249C21.1212 46.225 24.8557 46.225 28.422 45.3249C32.5117 44.3159 36.2477 42.2104 39.2265 39.2355C42.2053 36.2607 44.3136 32.5297 45.3239 28.4455C46.2254 24.8683 46.2254 21.1238 45.3239 17.5466L45.532 17.4773ZM23.0809 4.4541C26.7631 4.45695 30.3606 5.55722 33.4128 7.61404C36.4651 9.67086 38.8332 12.5906 40.214 15.9995H5.94781C7.32861 12.5906 9.69675 9.67086 12.749 7.61404C15.8013 5.55722 19.3988 4.45695 23.0809 4.4541ZM4.58364 22.9268C4.59151 22.1545 4.64556 21.3835 4.74549 20.6177H9.20796V25.2358H4.74549C4.64556 24.4701 4.59151 23.699 4.58364 22.9268ZM16.1444 40.0371C13.8487 39.108 11.7631 37.7279 10.0116 35.9787C8.26 34.2295 6.87809 32.1467 5.94781 29.854H11.5201C12.7466 29.854 13.9228 30.3406 14.79 31.2066C15.6572 32.0727 16.1444 33.2474 16.1444 34.4722V40.0371ZM25.3931 41.2378C24.6263 41.3376 23.8542 41.3915 23.0809 41.3994C22.3077 41.3915 21.5356 41.3376 20.7688 41.2378V36.7812H25.3931V41.2378ZM25.7168 32.1631H20.4451C20.0299 30.5748 19.1984 29.1256 18.0361 27.9649C16.8738 26.8041 15.4227 25.9737 13.8323 25.5591V20.6177H32.3296V25.5591C30.7391 25.9737 29.2881 26.8041 28.1258 27.9649C26.9635 29.1256 26.132 30.5748 25.7168 32.1631ZM30.0174 40.0371V34.4722C30.0174 33.2474 30.5046 32.0727 31.3718 31.2066C32.2391 30.3406 33.4153 29.854 34.6417 29.854H40.214C39.2838 32.1467 37.9018 34.2295 36.1503 35.9787C34.3987 37.7279 32.3132 39.108 30.0174 40.0371ZM41.4164 25.2358H36.9539V20.6177H41.4164C41.5163 21.3835 41.5703 22.1545 41.5782 22.9268C41.5703 23.699 41.5163 24.4701 41.4164 25.2358Z" fill="#19357F"/>
</svg>
