<svg width="58" height="57" viewBox="0 0 58 57" fill="none" xmlns="http://www.w3.org/2000/svg">
    <path fill-rule="evenodd" clip-rule="evenodd" d="M39.6405 5.1315C37.9231 4.90136 36.1684 4.97237 34.4568 5.3519C31.4437 6.02 28.7139 7.61089 26.6473 9.90312C24.5807 12.1953 23.2802 15.0749 22.9268 18.1408C22.5751 21.1916 23.1786 24.276 24.6534 26.9688C25.248 27.9996 25.0339 29.3199 24.1211 30.1084L6.61341 45.2309C5.89939 45.9752 5.49971 46.9676 5.5 48.0011C5.5003 49.0616 5.92171 50.0785 6.67159 50.8284C7.42146 51.5783 8.43842 51.9997 9.49891 52C10.5324 52.0003 11.5248 51.6006 12.2691 50.8866L27.3918 33.3787C28.1849 32.4605 29.5126 32.2517 30.5421 32.8525C33.2323 34.323 36.3125 34.9244 39.3592 34.5732C42.4252 34.2198 45.3047 32.9193 47.5969 30.8527C49.8891 28.7861 51.48 26.0563 52.1481 23.0432C52.5276 21.3316 52.5986 19.5769 52.3685 17.8595L44.0283 26.1997C43.4372 26.7908 42.5899 27.0473 41.7702 26.8834L34.1098 25.3513C33.1202 25.1534 32.3466 24.3798 32.1487 23.3902L30.6166 15.7298C30.4527 14.9101 30.7092 14.0628 31.3003 13.4717L39.6405 5.1315ZM29.9212 38.0994C33.0668 39.4319 36.515 39.9342 39.9318 39.5403C44.0307 39.0678 47.8804 37.3292 50.9449 34.5663C54.0094 31.8034 56.1363 28.1539 57.0295 24.1256C57.9227 20.0973 57.5378 15.8908 55.9283 12.0915C55.6697 11.481 55.179 10.9982 54.5644 10.7494C53.9497 10.5006 53.2614 10.5062 52.6509 10.7649L52.6498 10.7654C52.3538 10.8908 52.0848 11.0721 51.8575 11.2994L41.4388 21.7181L36.7247 20.7753L35.7819 16.0612L46.2006 5.64251C46.4246 5.41848 46.604 5.15392 46.7292 4.86291L46.7297 4.8618C46.9927 4.25051 47.0012 3.55956 46.7532 2.94201C46.5052 2.32446 46.0212 1.83126 45.4085 1.57168C41.6092 -0.0378098 37.4027 -0.422742 33.3744 0.470461C29.3461 1.36367 25.6966 3.49056 22.9337 6.55509C20.1708 9.61962 18.4321 13.4693 17.9597 17.5683C17.5658 20.985 18.0681 24.4332 19.4006 27.5788L3.26701 41.5144C3.22063 41.5545 3.17574 41.5962 3.13243 41.6396C1.44618 43.3278 0.499321 45.6164 0.5 48.0025C0.500679 50.3886 1.44884 52.6767 3.13605 54.3639C4.82326 56.0512 7.11141 56.9993 9.49748 57C11.8836 57.0007 14.1722 56.0538 15.8604 54.3676C15.9038 54.3243 15.9455 54.2794 15.9856 54.233L29.9212 38.0994Z" fill="#19357F"/>
</svg>
