<svg width="48" height="64" viewBox="0 0 48 64" fill="none" xmlns="http://www.w3.org/2000/svg">
    <path d="M36.236 6L33.789 1.105C33.6226 0.773019 33.3672 0.493855 33.0513 0.298715C32.7353 0.103574 32.3713 0.000148971 32 0H16C15.243 0 14.55 0.428 14.211 1.105L11.764 6H2C1.46957 6 0.96086 6.21071 0.585787 6.58579C0.210714 6.96086 0 7.46957 0 8V62C0 62.5304 0.210714 63.0391 0.585787 63.4142C0.96086 63.7893 1.46957 64 2 64H46C46.5304 64 47.0391 63.7893 47.4142 63.4142C47.7893 63.0391 48 62.5304 48 62V8C48 7.46957 47.7893 6.96086 47.4142 6.58579C47.0391 6.21071 46.5304 6 46 6H36.236ZM17.236 4H30.764L34.764 12H13.236L17.236 4ZM44 60H4V10H9.764L8.211 13.105C8.05811 13.4099 7.98579 13.7489 8.00092 14.0897C8.01605 14.4304 8.11813 14.7617 8.29744 15.0518C8.47676 15.342 8.72734 15.5815 9.02536 15.7474C9.32337 15.9134 9.65889 16.0004 10 16H38.02C38.3837 16 38.7405 15.9009 39.0521 15.7132C39.3636 15.5255 39.6181 15.2564 39.7881 14.9349C39.9581 14.6134 40.0373 14.2516 40.017 13.8885C39.9967 13.5253 39.8778 13.1746 39.673 12.874L38.236 10H44V60Z" fill="#19357F"/>
    <path d="M38 22H20C19.4696 22 18.9609 22.2107 18.5858 22.5858C18.2107 22.9609 18 23.4696 18 24C18 24.5304 18.2107 25.0391 18.5858 25.4142C18.9609 25.7893 19.4696 26 20 26H38C38.5304 26 39.0391 25.7893 39.4142 25.4142C39.7893 25.0391 40 24.5304 40 24C40 23.4696 39.7893 22.9609 39.4142 22.5858C39.0391 22.2107 38.5304 22 38 22ZM38 32H20C19.4696 32 18.9609 32.2107 18.5858 32.5858C18.2107 32.9609 18 33.4696 18 34C18 34.5304 18.2107 35.0391 18.5858 35.4142C18.9609 35.7893 19.4696 36 20 36H38C38.5304 36 39.0391 35.7893 39.4142 35.4142C39.7893 35.0391 40 34.5304 40 34C40 33.4696 39.7893 32.9609 39.4142 32.5858C39.0391 32.2107 38.5304 32 38 32ZM38 42H20C19.4696 42 18.9609 42.2107 18.5858 42.5858C18.2107 42.9609 18 43.4696 18 44C18 44.5304 18.2107 45.0391 18.5858 45.4142C18.9609 45.7893 19.4696 46 20 46H38C38.5304 46 39.0391 45.7893 39.4142 45.4142C39.7893 45.0391 40 44.5304 40 44C40 43.4696 39.7893 42.9609 39.4142 42.5858C39.0391 42.2107 38.5304 42 38 42ZM38 52H20C19.4696 52 18.9609 52.2107 18.5858 52.5858C18.2107 52.9609 18 53.4696 18 54C18 54.5304 18.2107 55.0391 18.5858 55.4142C18.9609 55.7893 19.4696 56 20 56H38C38.5304 56 39.0391 55.7893 39.4142 55.4142C39.7893 55.0391 40 54.5304 40 54C40 53.4696 39.7893 52.9609 39.4142 52.5858C39.0391 52.2107 38.5304 52 38 52ZM12 22H10C9.46957 22 8.96086 22.2107 8.58579 22.5858C8.21071 22.9609 8 23.4696 8 24C8 24.5304 8.21071 25.0391 8.58579 25.4142C8.96086 25.7893 9.46957 26 10 26H12C12.5304 26 13.0391 25.7893 13.4142 25.4142C13.7893 25.0391 14 24.5304 14 24C14 23.4696 13.7893 22.9609 13.4142 22.5858C13.0391 22.2107 12.5304 22 12 22ZM12 32H10C9.46957 32 8.96086 32.2107 8.58579 32.5858C8.21071 32.9609 8 33.4696 8 34C8 34.5304 8.21071 35.0391 8.58579 35.4142C8.96086 35.7893 9.46957 36 10 36H12C12.5304 36 13.0391 35.7893 13.4142 35.4142C13.7893 35.0391 14 34.5304 14 34C14 33.4696 13.7893 32.9609 13.4142 32.5858C13.0391 32.2107 12.5304 32 12 32ZM12 42H10C9.46957 42 8.96086 42.2107 8.58579 42.5858C8.21071 42.9609 8 43.4696 8 44C8 44.5304 8.21071 45.0391 8.58579 45.4142C8.96086 45.7893 9.46957 46 10 46H12C12.5304 46 13.0391 45.7893 13.4142 45.4142C13.7893 45.0391 14 44.5304 14 44C14 43.4696 13.7893 42.9609 13.4142 42.5858C13.0391 42.2107 12.5304 42 12 42ZM12 52H10C9.46957 52 8.96086 52.2107 8.58579 52.5858C8.21071 52.9609 8 53.4696 8 54C8 54.5304 8.21071 55.0391 8.58579 55.4142C8.96086 55.7893 9.46957 56 10 56H12C12.5304 56 13.0391 55.7893 13.4142 55.4142C13.7893 55.0391 14 54.5304 14 54C14 53.4696 13.7893 52.9609 13.4142 52.5858C13.0391 52.2107 12.5304 52 12 52Z" fill="#19357F"/>
</svg>
